<svg xmlns="http://www.w3.org/2000/svg" width="1024" height="1024" viewBox="0 0 1024 1024">
<g>
<path d="M 1021.18 193.47 C1022.43,200.91 1023.58,207.00 1023.73,207.00 C1023.88,207.00 1024.00,160.43 1024.00,103.50 L 1024.00 1024.00 L 0.00 1024.00 L 0.00 0.00 L 1024.00 0.00 L 813.50 0.18 L 826.00 2.05 C867.93,8.33 905.27,24.69 938.00,51.13 C952.45,62.80 971.54,82.92 981.02,96.47 C1001.97,126.39 1015.28,158.55 1021.18,193.47 ZM 435.70 738.52 C444.82,740.42 465.51,739.85 473.00,737.49 C484.52,733.87 496.81,727.35 505.91,720.04 C512.56,714.71 523.24,700.86 527.98,691.43 C541.01,665.48 539.36,633.90 523.65,608.70 C521.14,604.66 517.51,599.83 515.59,597.95 C510.58,593.05 510.36,590.93 514.23,584.68 L 518.70 577.44 C520.11,575.15 530.41,557.78 534.00,551.62 C535.38,549.26 537.54,545.43 538.80,543.11 C540.07,540.78 542.65,536.45 544.55,533.49 C546.45,530.52 548.00,527.84 548.00,527.53 C548.00,527.22 549.53,524.61 551.39,521.73 C555.92,514.74 574.00,484.08 574.00,483.40 C574.00,483.10 575.29,480.98 576.88,478.68 C580.01,474.12 591.00,455.33 591.00,454.52 C591.00,454.24 592.94,450.98 595.31,447.26 C597.68,443.54 601.58,437.04 603.97,432.82 C608.59,424.66 611.12,422.93 615.22,425.12 C616.68,425.90 620.69,426.09 627.53,425.71 L 637.66 425.13 L 641.50 431.82 C643.61,435.49 647.90,442.77 651.03,448.00 C654.15,453.23 658.64,460.88 661.00,465.00 C666.65,474.88 704.55,539.14 720.66,566.17 C725.80,574.79 730.00,582.03 730.00,582.26 C730.00,582.49 726.46,585.64 722.14,589.26 C709.28,600.03 700.22,613.91 694.83,631.10 C692.84,637.46 692.51,640.61 692.50,653.50 C692.50,670.12 693.37,674.92 698.69,687.50 C706.36,705.67 722.24,722.21 740.48,731.04 C752.93,737.06 759.69,738.87 772.71,739.67 C792.29,740.87 807.61,736.44 825.58,724.36 C842.24,713.16 856.01,693.21 860.43,673.86 C862.66,664.12 863.42,649.40 862.06,642.49 C857.53,619.45 847.99,602.00 833.06,589.42 C823.38,581.27 810.66,574.60 800.12,572.14 C793.98,570.71 791.41,569.62 790.17,567.90 C787.23,563.80 781.20,553.69 775.03,542.50 C773.21,539.20 771.16,535.83 770.48,535.00 C769.80,534.17 767.54,530.35 765.47,526.50 C763.39,522.65 760.86,518.31 759.85,516.85 C758.83,515.39 758.00,513.91 758.00,513.56 C758.00,513.21 757.17,511.70 756.16,510.21 C752.51,504.85 749.17,499.31 742.89,488.18 C739.38,481.96 736.05,476.11 735.49,475.18 C734.93,474.26 732.63,470.35 730.38,466.50 C725.71,458.53 716.99,443.70 715.50,441.18 C714.95,440.26 712.12,435.45 709.22,430.50 C706.31,425.55 703.53,420.83 703.05,420.00 C702.56,419.17 699.14,413.17 695.45,406.66 L 688.74 394.82 L 692.70 389.16 C699.30,379.73 706.00,364.81 706.00,359.56 C706.00,357.82 706.51,355.89 707.14,355.26 C708.82,353.58 708.81,330.84 707.13,323.50 C704.55,312.25 699.39,300.11 693.47,291.34 C689.45,285.39 679.87,275.00 678.41,275.00 C677.69,275.00 676.68,274.24 676.16,273.32 C674.83,270.94 663.66,264.64 652.00,259.68 C638.38,253.89 613.34,253.51 597.00,258.85 C567.88,268.36 547.93,289.48 540.35,318.82 C538.10,327.54 537.90,329.89 538.32,342.50 C538.96,361.31 541.90,370.70 552.41,387.39 C557.19,394.99 557.32,395.38 555.84,397.89 C553.43,402.00 531.51,439.42 518.00,462.50 C511.24,474.05 496.48,499.25 485.20,518.50 C473.92,537.75 463.15,556.20 461.27,559.50 C456.27,568.25 455.39,569.00 450.10,569.00 C440.11,569.00 422.51,573.20 413.50,577.74 C385.94,591.59 368.07,618.46 366.35,648.63 C364.95,673.12 372.72,694.86 389.13,712.43 C401.72,725.92 417.45,734.72 435.70,738.52 ZM 322.00 852.47 C339.35,854.12 353.83,854.28 363.68,852.92 C376.95,851.08 378.00,848.92 378.00,823.34 C378.00,806.88 377.79,804.50 376.00,800.99 C374.89,798.83 373.21,796.66 372.25,796.17 C371.29,795.68 361.17,795.01 349.76,794.68 C323.47,793.94 317.48,792.45 309.24,784.66 C302.70,778.48 299.79,773.03 297.68,763.00 C294.53,748.07 294.17,739.96 294.05,680.79 C293.87,600.65 293.00,591.29 283.31,565.88 C277.50,550.64 273.16,543.49 264.01,534.18 C257.48,527.52 242.80,517.00 240.03,517.00 C238.69,517.00 232.00,512.92 232.00,512.11 C232.00,511.73 235.24,509.87 239.20,507.98 C243.16,506.09 247.54,503.62 248.95,502.49 C250.35,501.37 253.35,499.20 255.60,497.69 C260.08,494.68 268.64,485.38 274.18,477.50 C282.15,466.16 287.53,451.23 290.91,431.00 C293.42,415.97 294.00,401.03 294.01,351.14 C294.02,296.26 294.85,275.96 297.65,262.50 C301.08,246.05 308.13,237.14 321.00,233.02 C322.92,232.40 334.17,231.44 346.00,230.88 C357.83,230.32 368.69,229.41 370.15,228.85 C371.61,228.29 373.86,226.72 375.15,225.34 C377.43,222.92 377.51,222.22 377.83,203.18 C378.20,181.06 377.51,177.22 372.57,173.69 C369.60,171.57 368.69,171.50 345.50,171.62 C317.76,171.75 306.81,173.11 290.37,178.43 C254.53,190.05 237.19,215.16 231.98,263.00 C231.33,268.96 230.48,304.23 230.01,344.50 C229.11,422.25 228.71,427.98 222.92,445.34 C219.41,455.88 216.24,461.55 210.65,467.27 C201.93,476.19 191.84,480.85 176.16,483.18 C164.79,484.87 163.91,486.00 162.81,500.33 C162.28,507.16 162.28,516.79 162.80,523.57 C163.94,538.43 164.73,539.41 177.31,541.44 C209.18,546.60 221.60,561.06 227.60,600.00 C228.92,608.53 229.37,624.28 230.01,684.00 C230.85,761.50 231.21,767.68 236.00,786.19 C241.26,806.57 248.92,819.63 262.21,830.91 C270.51,837.94 277.89,842.03 289.64,846.11 C300.80,849.97 305.54,850.90 322.00,852.47 ZM 0.10 916.75 L 0.00 1024.00 L 213.50 1023.78 L 201.00 1021.93 C179.59,1018.75 162.66,1014.10 144.00,1006.28 C97.94,986.96 59.17,953.64 32.82,910.70 C26.53,900.46 24.41,896.29 18.51,882.50 C9.35,861.08 5.06,845.11 1.55,819.35 C0.37,810.70 0.19,822.53 0.10,916.75 ZM 823.93 1021.94 L 811.50 1023.75 L 917.75 1023.88 L 1024.00 1024.00 L 1023.92 918.75 C1023.88,861.20 1023.68,814.50 1023.47,814.50 C1023.47,814.50 1023.47,814.50 1023.47,814.50 C1023.27,815.05 1022.37,820.67 1021.48,827.00 C1016.87,859.71 1004.88,890.75 986.11,918.62 C947.86,975.41 889.93,1012.32 823.93,1021.94 ZM 0.10 105.75 C0.19,197.65 0.38,210.26 1.52,202.00 C9.78,142.44 38.77,90.21 84.50,52.50 C117.01,25.69 155.92,8.44 198.42,2.01 L 210.50 0.18 L 0.00 0.00 Z" fill="rgb(0,51,254)"/>
<path d="M 435.70 738.52 C417.45,734.72 401.72,725.92 389.13,712.43 C372.72,694.86 364.95,673.12 366.35,648.63 C368.07,618.46 385.94,591.59 413.50,577.74 C422.51,573.20 440.11,569.00 450.10,569.00 C455.39,569.00 456.27,568.25 461.27,559.50 C463.15,556.20 473.92,537.75 485.20,518.50 C496.48,499.25 511.24,474.05 518.00,462.50 C531.51,439.42 553.43,402.00 555.84,397.89 C557.32,395.38 557.19,394.99 552.41,387.39 C541.90,370.70 538.96,361.31 538.32,342.50 C537.90,329.89 538.10,327.54 540.35,318.82 C547.93,289.48 567.88,268.36 597.00,258.85 C613.34,253.51 638.38,253.89 652.00,259.68 C663.66,264.64 674.83,270.94 676.16,273.32 C676.68,274.24 677.69,275.00 678.41,275.00 C679.87,275.00 689.45,285.39 693.47,291.34 C699.39,300.11 704.55,312.25 707.13,323.50 C708.81,330.84 708.82,353.58 707.14,355.26 C706.51,355.89 706.00,357.82 706.00,359.56 C706.00,364.81 699.30,379.73 692.70,389.16 L 688.74 394.82 L 695.45 406.66 C699.14,413.17 702.56,419.17 703.05,420.00 C703.53,420.83 706.31,425.55 709.22,430.50 C712.12,435.45 714.95,440.26 715.50,441.18 C716.99,443.70 725.71,458.53 730.38,466.50 C732.63,470.35 734.93,474.26 735.49,475.18 C736.05,476.11 739.38,481.96 742.89,488.18 C749.17,499.31 752.51,504.85 756.16,510.21 C757.17,511.70 758.00,513.21 758.00,513.56 C758.00,513.91 758.83,515.39 759.85,516.85 C760.86,518.31 763.39,522.65 765.47,526.50 C767.54,530.35 769.80,534.17 770.48,535.00 C771.16,535.83 773.21,539.20 775.03,542.50 C781.20,553.69 787.23,563.80 790.17,567.90 C791.41,569.62 793.98,570.71 800.12,572.14 C810.66,574.60 823.38,581.27 833.06,589.42 C847.99,602.00 857.53,619.45 862.06,642.49 C863.42,649.40 862.66,664.12 860.43,673.86 C856.01,693.21 842.24,713.16 825.58,724.36 C807.61,736.44 792.29,740.87 772.71,739.67 C759.69,738.87 752.93,737.06 740.48,731.04 C722.24,722.21 706.36,705.67 698.69,687.50 C693.37,674.92 692.50,670.12 692.50,653.50 C692.51,640.61 692.84,637.46 694.83,631.10 C700.22,613.91 709.28,600.03 722.14,589.26 C726.46,585.64 730.00,582.49 730.00,582.26 C730.00,582.03 725.80,574.79 720.66,566.17 C704.55,539.14 666.65,474.88 661.00,465.00 C658.64,460.88 654.15,453.23 651.03,448.00 C647.90,442.77 643.61,435.49 641.50,431.82 L 637.66 425.13 L 627.53 425.71 C620.69,426.09 616.68,425.90 615.22,425.12 C611.12,422.93 608.59,424.66 603.97,432.82 C601.58,437.04 597.68,443.54 595.31,447.26 C592.94,450.98 591.00,454.24 591.00,454.52 C591.00,455.33 580.01,474.12 576.88,478.68 C575.29,480.98 574.00,483.10 574.00,483.40 C574.00,484.08 555.92,514.74 551.39,521.73 C549.53,524.61 548.00,527.22 548.00,527.53 C548.00,527.84 546.45,530.52 544.55,533.49 C542.65,536.45 540.07,540.78 538.80,543.11 C537.54,545.43 535.38,549.26 534.00,551.62 C530.41,557.78 520.11,575.15 518.70,577.44 L 514.23 584.68 C510.36,590.93 510.58,593.05 515.59,597.95 C517.51,599.83 521.14,604.66 523.65,608.70 C539.36,633.90 541.01,665.48 527.98,691.43 C523.24,700.86 512.56,714.71 505.91,720.04 C496.81,727.35 484.52,733.87 473.00,737.49 C465.51,739.85 444.82,740.42 435.70,738.52 ZM 322.00 852.47 C305.54,850.90 300.80,849.97 289.64,846.11 C277.89,842.03 270.51,837.94 262.21,830.91 C248.92,819.63 241.26,806.57 236.00,786.19 C231.21,767.68 230.85,761.50 230.01,684.00 C229.37,624.28 228.92,608.53 227.60,600.00 C221.60,561.06 209.18,546.60 177.31,541.44 C164.73,539.41 163.94,538.43 162.80,523.57 C162.28,516.79 162.28,507.16 162.81,500.33 C163.91,486.00 164.79,484.87 176.16,483.18 C191.84,480.85 201.93,476.19 210.65,467.27 C216.24,461.55 219.41,455.88 222.92,445.34 C228.71,427.98 229.11,422.25 230.01,344.50 C230.48,304.23 231.33,268.96 231.98,263.00 C237.19,215.16 254.53,190.05 290.37,178.43 C306.81,173.11 317.76,171.75 345.50,171.62 C368.69,171.50 369.60,171.57 372.57,173.69 C377.51,177.22 378.20,181.06 377.83,203.18 C377.51,222.22 377.43,222.92 375.15,225.34 C373.86,226.72 371.61,228.29 370.15,228.85 C368.69,229.41 357.83,230.32 346.00,230.88 C334.17,231.44 322.92,232.40 321.00,233.02 C308.13,237.14 301.08,246.05 297.65,262.50 C294.85,275.96 294.02,296.26 294.01,351.14 C294.00,401.03 293.42,415.97 290.91,431.00 C287.53,451.23 282.15,466.16 274.18,477.50 C268.64,485.38 260.08,494.68 255.60,497.69 C253.35,499.20 250.35,501.37 248.95,502.49 C247.54,503.62 243.16,506.09 239.20,507.98 C235.24,509.87 232.00,511.73 232.00,512.11 C232.00,512.92 238.69,517.00 240.03,517.00 C242.80,517.00 257.48,527.52 264.01,534.18 C273.16,543.49 277.50,550.64 283.31,565.88 C293.00,591.29 293.87,600.65 294.05,680.79 C294.17,739.96 294.53,748.07 297.68,763.00 C299.79,773.03 302.70,778.48 309.24,784.66 C317.48,792.45 323.47,793.94 349.76,794.68 C361.17,795.01 371.29,795.68 372.25,796.17 C373.21,796.66 374.89,798.83 376.00,800.99 C377.79,804.50 378.00,806.88 378.00,823.34 C378.00,848.92 376.95,851.08 363.68,852.92 C353.83,854.28 339.35,854.12 322.00,852.47 Z" fill="rgb(152,253,1)"/>
<path d="M 0.10 916.75 C0.19,822.53 0.37,810.70 1.55,819.35 C5.06,845.11 9.35,861.08 18.51,882.50 C24.41,896.29 26.53,900.46 32.82,910.70 C59.17,953.64 97.94,986.96 144.00,1006.28 C162.66,1014.10 179.59,1018.75 201.00,1021.93 L 213.50 1023.78 L 106.75 1023.89 L 0.00 1024.00 L 0.10 916.75 ZM 823.93 1021.94 C889.93,1012.32 947.86,975.41 986.11,918.62 C1004.88,890.75 1016.87,859.71 1021.48,827.00 C1022.37,820.67 1023.27,815.05 1023.47,814.50 C1023.68,813.95 1023.88,860.86 1023.92,918.75 L 1024.00 1024.00 L 917.75 1023.88 L 811.50 1023.75 L 823.93 1021.94 ZM 0.10 105.75 L 0.00 0.00 L 105.25 0.09 L 210.50 0.18 L 198.42 2.01 C155.92,8.44 117.01,25.69 84.50,52.50 C38.77,90.21 9.78,142.44 1.52,202.00 C0.38,210.26 0.19,197.65 0.10,105.75 ZM 1021.18 193.47 C1015.28,158.55 1001.97,126.39 981.02,96.47 C971.54,82.92 952.45,62.80 938.00,51.13 C905.27,24.69 867.93,8.33 826.00,2.05 L 813.50 0.18 L 918.75 0.09 L 1024.00 0.00 L 1024.00 103.50 C1024.00,160.43 1023.88,207.00 1023.73,207.00 C1023.58,207.00 1022.43,200.91 1021.18,193.47 Z" fill="rgb(253,254,254)"/>
</g>
</svg>