<svg xmlns="http://www.w3.org/2000/svg" width="1024" height="1024" viewBox="0 0 1024 1024">
<g>
<path d="M 781.30 742.78 C769.99,742.56 766.85,742.82 763.88,744.21 C760.73,745.70 760.03,745.73 758.38,744.49 C757.35,743.71 756.89,743.05 757.37,743.03 C757.85,743.01 757.69,742.33 757.01,741.51 C756.33,740.69 755.35,740.28 754.84,740.60 C754.33,740.91 753.37,740.73 752.71,740.19 C752.04,739.65 749.20,738.52 746.38,737.69 C743.57,736.86 738.46,734.80 735.04,733.10 L 728.81 730.01 L 727.15 732.07 C726.06,733.41 724.88,733.89 723.74,733.45 C721.38,732.55 721.54,729.93 724.00,729.29 C726.72,728.58 726.52,727.74 723.16,725.75 C721.60,724.83 718.42,722.24 716.11,719.99 C713.05,717.02 711.36,716.07 709.95,716.52 C708.34,717.03 707.99,716.64 707.93,714.32 C707.90,712.77 706.43,709.52 704.67,707.10 C701.52,702.76 700.18,701.66 696.76,700.61 C695.28,700.15 695.19,699.68 696.16,697.56 C697.10,695.49 696.94,694.29 695.23,690.77 C690.01,680.00 687.97,670.09 687.74,654.50 C687.52,639.03 689.49,627.26 693.19,621.83 C695.71,618.15 696.54,613.35 694.98,611.48 C694.29,610.64 694.00,609.66 694.36,609.31 C694.71,608.96 695.00,609.19 695.00,609.83 C695.00,612.42 697.80,610.72 701.48,605.90 C704.75,601.61 705.18,600.52 704.20,598.95 C703.23,597.39 703.49,596.58 705.78,594.07 C707.70,591.98 709.15,591.23 710.58,591.60 C712.09,591.99 712.93,591.45 713.81,589.51 C714.47,588.07 716.58,586.24 718.50,585.43 C721.50,584.18 722.00,583.50 722.00,580.68 C722.00,578.87 721.34,576.51 720.53,575.44 C719.72,574.37 719.05,572.79 719.03,571.92 C719.01,571.06 717.85,569.27 716.45,567.95 C713.89,565.55 712.97,565.84 711.71,569.43 C711.18,570.94 709.00,569.04 709.00,567.06 C709.00,566.06 709.67,564.68 710.50,564.00 C712.76,562.12 712.31,560.26 709.25,558.79 C706.96,557.69 706.55,556.93 706.83,554.23 C707.00,552.46 706.70,551.00 706.15,551.00 C705.60,551.00 704.67,549.53 704.08,547.74 C703.49,545.95 701.90,543.29 700.54,541.83 C699.19,540.37 697.79,538.03 697.44,536.63 C696.49,532.82 694.33,531.38 693.50,534.00 C692.96,535.71 692.56,535.88 691.38,534.90 C690.32,534.02 690.09,532.55 690.56,529.46 C690.93,526.96 690.78,524.98 690.17,524.60 C689.61,524.26 688.61,522.29 687.96,520.24 C687.31,518.18 685.55,514.92 684.05,513.00 C682.54,511.08 680.56,508.05 679.64,506.28 C678.73,504.51 677.17,502.26 676.17,501.28 C675.18,500.30 673.82,497.61 673.15,495.30 C672.49,492.98 670.83,489.77 669.47,488.15 C668.11,486.53 667.00,484.76 667.00,484.21 C667.00,482.71 664.19,481.94 663.69,483.31 C663.35,484.22 662.94,484.20 661.92,483.25 C660.89,482.28 660.87,481.73 661.80,480.80 C663.25,479.35 663.39,476.00 662.00,476.00 C661.45,476.00 661.00,475.31 661.00,474.46 C661.00,473.61 660.10,471.95 659.00,470.77 C657.90,469.59 657.00,467.88 657.00,466.97 C657.00,465.00 654.36,462.50 651.30,461.57 C649.52,461.03 649.14,460.20 649.25,457.20 C649.40,453.14 644.81,445.00 642.37,445.00 C641.62,445.00 640.95,444.44 640.89,443.75 C640.84,443.06 640.69,441.83 640.56,441.00 C640.44,440.17 640.27,438.73 640.17,437.78 C640.08,436.84 638.60,434.48 636.89,432.53 L 633.78 428.99 L 622.36 429.08 L 610.95 429.16 L 606.98 434.83 C604.80,437.95 602.05,442.52 600.87,445.00 C599.69,447.48 596.53,452.77 593.86,456.77 C591.19,460.77 589.00,464.71 589.00,465.52 C589.00,468.01 583.27,477.73 579.46,481.72 C577.30,483.97 574.45,491.45 574.87,493.77 C574.99,494.46 574.58,494.91 573.95,494.77 C573.33,494.62 572.29,495.40 571.66,496.49 C571.02,497.59 569.49,499.76 568.25,501.31 C566.53,503.49 566.24,504.58 567.00,506.01 C568.45,508.71 568.23,510.02 566.44,509.34 C564.54,508.61 561.27,511.92 559.84,516.02 C559.27,517.66 558.40,519.00 557.90,519.00 C557.41,519.00 557.00,519.64 557.00,520.43 C557.00,521.21 556.38,522.47 555.63,523.23 C554.35,524.51 551.00,530.37 551.00,531.33 C551.00,531.57 551.90,532.00 553.00,532.29 C555.16,532.85 555.76,536.41 553.89,537.57 C552.87,538.20 551.60,537.00 550.65,534.50 C550.02,532.82 545.00,538.20 545.00,540.57 C545.00,541.79 544.34,543.04 543.54,543.35 C541.60,544.09 540.04,550.00 541.19,552.27 C541.69,553.24 541.82,554.48 541.49,555.02 C540.62,556.42 538.00,556.23 538.00,554.78 C538.00,553.02 535.50,556.94 534.22,560.70 C533.63,562.46 531.75,565.16 530.06,566.70 C528.24,568.35 526.89,570.63 526.77,572.25 C526.65,573.83 525.84,575.23 524.87,575.54 C523.93,575.84 522.72,577.36 522.18,578.92 C521.63,580.48 520.39,582.68 519.42,583.82 C517.16,586.46 516.94,590.63 518.86,594.75 C520.36,597.97 522.31,598.92 523.50,597.00 C524.65,595.15 525.71,595.98 525.74,598.75 C525.78,603.79 527.98,610.00 531.52,615.02 C533.44,617.76 534.97,620.11 534.91,620.25 C534.60,621.05 536.26,628.78 537.05,630.24 C537.57,631.19 538.00,633.50 538.00,635.36 C538.00,637.23 538.70,640.44 539.56,642.49 C541.38,646.85 541.08,663.13 539.02,671.50 C538.34,674.25 537.79,678.19 537.79,680.25 C537.80,682.31 537.37,684.00 536.85,684.00 C536.32,684.00 536.19,685.50 536.56,687.48 C537.15,690.60 536.94,691.07 534.59,691.97 C533.15,692.51 531.55,694.06 531.04,695.40 C530.53,696.74 529.50,698.21 528.75,698.67 C528.00,699.13 526.60,701.21 525.63,703.29 C524.66,705.38 522.50,708.64 520.83,710.54 C519.16,712.45 518.03,714.62 518.32,715.38 C518.98,717.10 517.18,719.01 515.50,718.36 C513.82,717.72 508.36,724.47 507.63,728.10 C506.98,731.34 505.87,731.73 503.65,729.50 C501.76,727.61 499.35,728.49 498.63,731.32 C498.19,733.07 497.28,733.54 494.02,733.68 C489.50,733.88 483.64,736.94 480.30,740.83 C478.31,743.16 477.88,743.27 475.63,742.07 C473.83,741.11 472.39,741.02 470.32,741.74 C468.75,742.29 459.04,742.68 448.73,742.62 C438.43,742.55 430.00,742.79 430.00,743.14 C430.00,744.67 426.52,744.95 425.11,743.54 C424.26,742.69 424.04,742.00 424.62,742.00 C425.20,742.00 425.67,741.39 425.67,740.64 C425.67,739.84 422.77,738.36 418.58,737.02 C410.78,734.52 404.77,731.71 401.12,728.86 C399.80,727.84 398.00,727.04 397.12,727.08 C396.07,727.13 395.94,727.34 396.76,727.66 C398.83,728.50 397.08,730.00 394.02,730.00 C389.61,730.00 388.00,729.01 388.00,726.28 C388.00,723.70 388.91,723.61 394.66,725.64 C396.34,726.24 396.32,726.12 394.50,724.30 C393.40,723.21 390.17,719.83 387.32,716.79 C381.65,710.75 380.02,709.75 377.94,711.04 C377.09,711.56 376.26,711.43 375.79,710.70 C374.72,709.01 374.82,708.00 376.06,708.00 C376.64,708.00 376.80,708.52 376.40,709.15 C376.00,709.82 376.13,710.04 376.71,709.68 C378.24,708.73 377.00,704.02 374.87,702.69 C373.84,702.04 373.00,700.79 373.00,699.89 C373.00,699.00 372.16,697.20 371.13,695.88 C370.10,694.57 368.93,691.47 368.53,689.00 C368.14,686.53 366.47,682.08 364.82,679.12 C363.18,676.16 362.06,672.90 362.32,671.87 C362.59,670.84 362.40,669.75 361.91,669.44 C361.41,669.13 361.00,666.93 361.00,664.55 C361.00,661.62 360.51,660.03 359.50,659.64 C357.61,658.91 357.56,654.62 359.41,651.71 C360.18,650.50 361.13,646.64 361.51,643.15 C361.90,639.66 362.84,635.61 363.60,634.15 C364.36,632.69 364.99,630.50 364.99,629.28 C365.00,628.06 365.94,625.25 367.09,623.05 C368.24,620.84 369.44,617.11 369.74,614.77 C370.05,612.42 370.79,610.18 371.38,609.80 C371.97,609.41 372.32,607.44 372.14,605.42 C371.84,601.90 371.94,601.77 374.43,602.39 C376.61,602.94 377.19,602.62 378.03,600.43 C378.58,598.99 379.88,597.58 380.93,597.31 C381.97,597.04 383.10,595.73 383.43,594.41 C383.77,593.08 384.50,592.00 385.06,592.00 C385.62,592.00 388.13,589.88 390.65,587.29 C393.17,584.70 395.75,582.51 396.38,582.41 C397.02,582.32 399.55,580.89 402.02,579.23 C404.48,577.57 408.22,575.50 410.32,574.63 C412.43,573.76 414.92,572.08 415.87,570.91 C417.49,568.91 421.59,567.97 428.75,567.98 C429.98,567.98 433.56,567.31 436.71,566.49 C439.85,565.67 444.08,565.00 446.10,565.00 C449.92,565.00 451.46,563.37 450.36,560.50 C450.05,559.67 450.28,559.00 450.89,559.00 C451.50,559.00 452.00,559.98 452.00,561.19 C452.00,563.35 452.03,563.35 453.76,561.44 C457.86,556.93 462.78,549.09 465.02,543.50 C466.34,540.20 468.41,536.60 469.62,535.50 C472.27,533.08 474.00,529.81 474.00,527.22 C474.00,526.17 475.60,523.66 477.55,521.66 C480.72,518.39 481.02,517.62 480.41,514.35 C479.77,510.98 479.89,510.74 481.82,511.24 C484.38,511.91 484.87,511.34 489.35,502.60 C491.29,498.80 493.26,495.42 493.73,495.10 C496.77,492.98 501.79,480.43 499.86,479.79 C499.36,479.62 498.67,477.75 498.33,475.64 C497.78,472.24 497.92,471.84 499.60,472.16 C500.90,472.41 501.67,473.63 502.03,476.01 L 502.55 479.50 L 503.97 477.00 C504.75,475.62 505.64,472.70 505.95,470.50 C506.43,467.10 506.84,466.55 508.70,466.80 C511.17,467.15 513.00,464.69 513.00,461.04 C513.00,460.51 514.20,458.97 515.67,457.61 C517.69,455.73 518.40,454.02 518.60,450.59 C518.89,445.42 519.52,444.00 521.52,444.00 C523.69,444.00 525.33,440.34 523.48,439.63 C521.34,438.81 521.58,435.76 523.75,436.24 C524.71,436.45 525.38,437.17 525.24,437.85 C525.04,438.78 525.46,438.82 526.99,438.01 C528.09,437.41 529.00,436.13 529.00,435.16 C529.00,434.19 530.40,431.50 532.10,429.17 C534.37,426.09 534.92,424.61 534.16,423.69 C533.00,422.30 533.85,420.50 535.67,420.50 C537.85,420.50 546.89,405.89 547.59,401.26 C547.95,398.86 548.90,396.24 549.71,395.43 C551.00,394.14 550.79,393.60 547.95,390.95 C546.18,389.30 545.01,387.65 545.36,387.30 C545.72,386.95 545.27,385.85 544.38,384.86 C543.48,383.87 542.98,382.18 543.26,381.10 C543.59,379.85 542.91,378.33 541.39,376.90 C540.07,375.66 539.00,373.60 539.00,372.33 C539.00,371.05 538.55,370.00 538.00,370.00 C537.45,370.00 537.00,368.85 537.00,367.43 C537.00,366.02 536.57,364.06 536.04,363.07 C535.14,361.40 532.87,338.06 532.81,329.88 C532.80,327.89 533.50,325.17 534.37,323.83 C535.53,322.07 535.86,319.71 535.57,315.20 C535.25,310.10 535.50,308.76 536.95,307.74 C539.40,306.03 545.00,297.01 545.00,294.79 C545.00,292.52 546.99,288.91 549.14,287.29 C550.04,286.60 551.04,284.99 551.36,283.71 C551.68,282.42 553.04,280.78 554.37,280.07 C555.71,279.35 557.18,277.95 557.65,276.94 C558.46,275.19 562.27,272.06 568.24,268.25 C569.75,267.29 570.99,265.74 570.99,264.82 C571.00,263.89 572.01,262.83 573.25,262.45 C574.49,262.08 576.50,260.85 577.73,259.73 C579.34,258.25 581.57,257.62 585.73,257.44 C588.90,257.30 592.85,256.47 594.50,255.60 C596.15,254.73 598.01,254.01 598.63,254.01 C599.25,254.00 600.27,253.38 600.90,252.62 C601.53,251.86 603.33,250.98 604.89,250.67 C606.63,250.32 607.95,249.30 608.28,248.05 C608.98,245.35 610.32,245.46 613.59,248.50 C616.14,250.86 616.93,251.00 627.45,251.00 C633.58,251.00 639.03,251.42 639.55,251.93 C640.45,252.82 650.08,255.52 656.50,256.68 C658.15,256.98 660.85,258.47 662.50,259.99 C665.44,262.70 669.29,264.13 673.74,264.19 C674.99,264.20 675.71,264.66 675.37,265.22 C674.25,267.03 677.26,267.88 679.53,266.39 C681.96,264.80 684.54,265.35 685.43,267.67 C686.22,269.75 685.27,271.00 682.88,271.00 C681.70,271.00 681.16,271.44 681.55,272.09 C681.92,272.69 683.12,272.94 684.21,272.65 C685.30,272.37 685.97,272.37 685.68,272.65 C685.40,272.94 685.60,274.42 686.13,275.95 C687.00,278.43 690.82,281.30 693.50,281.48 C696.02,281.66 696.97,283.08 695.80,284.94 C694.85,286.47 695.11,287.34 697.32,289.97 C698.80,291.72 700.00,293.65 700.00,294.25 C700.00,294.85 700.69,296.10 701.53,297.03 C702.37,297.96 703.26,299.80 703.51,301.11 C704.53,306.60 709.00,313.85 709.00,310.03 C709.00,309.50 709.67,309.32 710.50,309.64 C712.20,310.29 712.52,313.56 710.98,314.51 C709.81,315.23 710.74,327.46 712.17,330.25 C712.67,331.21 713.73,332.00 714.54,332.00 C716.29,332.00 716.51,335.66 714.79,336.24 C713.39,336.70 710.78,351.82 710.61,360.41 C710.52,365.29 710.05,366.79 707.91,369.09 C706.48,370.62 704.29,374.72 703.03,378.19 C701.78,381.66 699.55,386.30 698.08,388.50 L 697.87 388.82 C695.05,393.04 694.08,394.50 694.36,394.81 C694.51,394.97 695.01,394.81 695.77,394.57 L 695.88 394.54 C698.58,393.68 700.18,396.86 697.80,398.35 C696.43,399.22 696.53,399.89 698.66,404.13 C699.98,406.77 701.50,409.19 702.03,409.52 C702.57,409.85 703.00,411.10 703.00,412.31 C703.00,413.61 704.41,415.63 706.50,417.29 C708.42,418.83 710.01,420.85 710.02,421.79 C710.04,422.73 711.36,425.75 712.96,428.50 C714.57,431.25 716.95,435.52 718.26,438.00 C719.58,440.48 722.08,444.73 723.82,447.45 C725.57,450.17 727.03,453.09 727.07,453.95 C727.11,454.98 727.50,454.74 728.22,453.25 C729.49,450.62 730.30,450.45 731.99,452.49 C733.38,454.16 732.57,457.47 731.00,456.50 C730.40,456.13 730.45,456.90 731.14,458.40 C731.77,459.80 732.75,460.66 733.30,460.31 C733.86,459.97 734.01,460.18 733.64,460.78 C733.27,461.37 733.42,462.14 733.98,462.49 C734.54,462.84 735.00,464.35 735.00,465.86 C735.00,468.51 736.55,471.00 738.20,471.00 C738.64,471.00 738.89,470.46 738.75,469.81 C738.61,469.15 739.29,468.45 740.25,468.24 C741.48,467.97 742.00,468.47 742.00,469.93 C742.00,471.12 741.35,472.00 740.46,472.00 C739.24,472.00 739.15,472.40 740.00,474.00 C740.59,475.10 741.70,476.00 742.48,476.00 C744.43,476.00 745.11,477.40 745.45,482.20 C745.67,485.32 746.39,486.81 748.37,488.25 C750.11,489.51 751.00,491.10 751.00,492.91 C751.00,495.84 755.06,500.55 756.48,499.26 C756.94,498.84 756.97,499.11 756.54,499.85 C756.07,500.66 756.60,502.32 757.88,504.05 C759.05,505.63 760.00,507.54 760.00,508.30 C760.00,509.07 760.90,510.50 762.00,511.50 C763.11,512.50 764.00,514.58 764.00,516.15 C764.00,517.72 764.38,519.00 764.84,519.00 C765.30,519.00 766.91,521.44 768.42,524.42 C769.93,527.41 771.80,530.09 772.58,530.39 C773.36,530.69 774.00,531.67 774.00,532.56 C774.00,533.46 774.85,535.39 775.89,536.85 C776.93,538.31 777.84,539.83 777.92,540.24 C777.99,540.65 778.41,541.94 778.84,543.10 C779.59,545.13 779.71,545.15 781.38,543.48 C782.69,542.17 783.41,542.01 784.27,542.87 C785.13,543.73 785.03,544.40 783.86,545.57 C781.57,547.86 782.68,551.22 786.57,553.77 C788.84,555.26 790.00,556.80 790.00,558.33 C790.00,561.93 797.04,567.23 803.82,568.72 C812.31,570.59 813.09,570.83 814.46,571.96 C816.51,573.66 825.01,578.00 826.30,578.00 C826.96,578.00 828.40,579.37 829.50,581.03 C830.60,582.70 832.62,584.33 834.00,584.67 C837.43,585.50 839.00,586.90 839.00,589.12 C839.00,590.16 839.42,591.00 839.93,591.00 C840.45,591.00 841.15,591.90 841.50,593.00 C841.85,594.10 842.58,595.00 843.11,595.00 C844.68,595.00 853.76,604.51 854.15,606.56 C854.35,607.58 855.63,608.68 857.01,609.00 C859.42,609.57 860.42,611.90 858.75,613.08 C858.30,613.40 858.66,616.32 859.55,619.58 C860.44,622.84 861.60,627.08 862.12,629.00 C864.48,637.68 865.30,644.31 865.34,655.00 C865.40,667.55 862.97,685.16 860.83,687.82 C858.17,691.12 856.00,695.85 856.00,698.33 C856.00,699.81 855.00,701.64 853.59,702.75 C852.26,703.79 850.12,706.21 848.82,708.12 C844.67,714.24 842.58,716.43 837.48,719.96 C834.74,721.86 831.31,724.67 829.85,726.21 C828.39,727.74 826.64,729.00 825.97,729.00 C825.29,729.00 824.00,729.85 823.09,730.89 C822.19,731.94 819.15,733.47 816.33,734.31 C813.52,735.14 809.48,736.96 807.36,738.34 C801.41,742.21 796.34,743.08 781.30,742.78 ZM 435.00 739.55 C445.26,741.77 465.52,740.82 475.00,737.68 C491.38,732.26 503.33,724.77 514.11,713.16 C527.21,699.05 534.29,684.14 537.06,664.82 C540.27,642.36 532.80,616.79 517.79,598.91 L 511.77 591.75 L 514.06 587.62 C515.32,585.36 520.47,576.53 525.52,568.00 C530.56,559.47 537.85,547.10 541.72,540.50 C553.50,520.40 555.13,517.64 566.00,499.28 C571.78,489.53 583.76,469.16 592.64,454.02 L 608.78 426.50 L 622.45 426.50 L 623.45 426.50 C631.59,426.50 635.04,426.50 637.40,428.10 C639.23,429.35 640.40,431.56 642.60,435.50 C647.18,443.71 652.03,452.10 660.75,466.87 C665.29,474.57 669.00,481.10 669.00,481.40 C669.00,481.70 671.03,485.07 673.50,488.89 C675.97,492.72 678.00,496.14 678.00,496.49 C678.00,496.84 679.07,498.57 680.39,500.32 C681.70,502.07 683.73,505.30 684.90,507.50 C686.06,509.70 687.46,512.17 688.00,513.00 C690.64,517.07 713.02,555.31 714.99,559.12 C718.08,565.11 718.01,565.00 722.36,571.55 C728.61,580.99 728.71,581.43 725.39,584.95 C723.80,586.63 722.00,588.00 721.38,588.00 C720.29,588.00 716.44,592.05 708.72,601.36 C701.54,610.01 693.49,628.35 691.54,640.50 C688.47,659.61 692.58,680.16 703.17,698.69 C707.32,705.95 724.69,725.00 727.16,725.00 C727.73,725.00 729.60,726.00 731.31,727.22 C748.75,739.64 779.78,744.45 800.50,737.96 C827.58,729.48 849.61,708.62 858.57,682.98 C863.73,668.23 865.10,655.32 862.91,642.08 C860.53,627.65 852.25,608.22 845.18,600.43 C843.71,598.80 840.72,595.45 838.54,592.99 C836.36,590.52 833.82,588.05 832.91,587.50 C831.99,586.95 828.38,584.50 824.89,582.06 C817.63,576.98 807.72,572.55 799.88,570.90 C796.92,570.27 793.73,569.36 792.80,568.87 C791.86,568.38 787.99,562.70 784.19,556.24 C765.11,523.84 762.42,519.24 760.67,516.00 C758.94,512.80 750.93,499.25 738.50,478.50 C735.87,474.10 730.48,464.88 726.54,458.00 C722.59,451.12 712.73,434.16 704.61,420.30 L 689.85 395.11 L 694.05 388.92 C699.64,380.70 705.42,368.11 707.54,359.55 C709.64,351.11 709.96,335.38 708.26,324.77 C704.89,303.72 690.62,281.47 672.48,268.99 C666.12,264.61 652.74,258.48 645.50,256.62 C615.19,248.85 581.29,258.11 560.27,279.90 C555.03,285.33 545.01,300.93 543.50,306.00 C543.09,307.38 542.41,308.95 541.99,309.50 C541.56,310.05 540.21,314.68 538.98,319.79 C537.05,327.80 536.81,330.96 537.22,342.79 C537.61,354.11 538.19,358.07 540.50,365.50 C542.04,370.45 543.84,375.17 544.50,376.00 C545.17,376.83 546.95,380.09 548.47,383.25 C549.99,386.41 551.53,389.00 551.90,389.00 C552.27,389.00 553.38,390.37 554.37,392.05 C556.10,394.97 556.10,395.20 554.38,397.80 C553.40,399.28 551.45,402.63 550.05,405.24 C548.65,407.85 545.07,414.15 542.09,419.24 C539.12,424.33 535.58,430.52 534.22,433.00 C532.86,435.48 530.75,438.85 529.53,440.50 C528.30,442.15 525.66,446.60 523.66,450.39 C521.65,454.18 519.62,457.78 519.14,458.39 C518.66,459.00 516.80,462.20 515.00,465.50 C513.21,468.80 511.16,472.17 510.45,473.00 C509.74,473.83 507.26,478.10 504.94,482.50 C502.62,486.90 499.21,492.87 497.36,495.77 C495.51,498.67 494.00,501.26 494.00,501.54 C494.00,501.82 492.94,503.72 491.65,505.77 C490.36,507.82 487.32,512.86 484.90,516.96 C482.48,521.06 479.96,525.33 479.29,526.46 C478.62,527.58 477.76,529.17 477.37,530.00 C476.98,530.83 475.16,533.87 473.33,536.77 C471.50,539.67 470.00,542.28 470.00,542.57 C470.00,542.86 468.30,545.66 466.22,548.80 C464.15,551.93 461.40,556.53 460.13,559.00 C456.24,566.55 454.37,568.00 448.48,568.00 C441.32,568.00 422.73,572.29 415.50,575.60 C398.02,583.63 384.09,596.50 376.14,611.99 C373.46,617.22 370.00,625.33 368.46,630.00 C365.97,637.59 365.66,639.99 365.58,652.50 C365.54,660.20 365.82,668.30 366.21,670.50 C367.36,676.93 372.43,690.34 376.10,696.66 C377.96,699.87 379.79,703.17 380.16,704.00 C381.75,707.51 399.03,723.82 405.00,727.44 C413.03,732.30 426.37,737.68 435.00,739.55 ZM 361.95 856.09 C361.23,857.25 334.19,856.89 316.50,855.49 C304.07,854.51 300.98,853.87 289.00,849.77 C274.37,844.77 261.36,838.00 257.89,833.59 C256.20,831.44 255.07,830.91 252.85,831.23 C250.15,831.63 250.00,831.46 250.00,827.94 C250.00,825.09 249.42,823.85 247.50,822.59 C246.12,821.69 245.00,820.35 245.00,819.61 C245.00,818.87 244.10,817.13 243.00,815.73 C241.90,814.33 241.00,812.44 241.00,811.54 C241.00,810.63 239.71,808.68 238.14,807.19 C234.97,804.21 233.00,799.36 233.00,794.55 C233.00,792.82 232.49,790.89 231.86,790.26 C231.24,789.64 230.60,787.33 230.44,785.13 C230.29,782.93 229.42,777.49 228.51,773.03 C227.44,767.80 227.03,762.40 227.36,757.77 C227.71,752.78 227.42,749.56 226.41,747.14 C225.20,744.23 224.97,733.20 225.00,678.59 C225.04,617.01 224.47,600.76 222.05,594.00 C221.56,592.62 220.94,589.57 220.67,587.21 C220.40,584.85 219.60,582.22 218.88,581.36 C218.17,580.50 217.50,579.20 217.39,578.46 C216.84,574.67 214.50,569.22 212.49,567.00 C211.24,565.62 209.91,563.45 209.52,562.16 C209.11,560.81 207.38,559.22 205.44,558.41 C203.59,557.64 201.59,556.11 201.01,555.01 C199.61,552.41 194.86,550.00 191.12,550.00 C189.48,550.00 187.54,549.40 186.80,548.66 C183.96,545.82 180.41,544.76 171.62,544.14 C163.58,543.57 162.48,543.27 162.16,541.50 C161.96,540.40 161.07,538.69 160.19,537.69 C158.84,536.17 158.58,532.76 158.54,515.69 C158.50,493.95 159.06,487.72 161.49,483.01 C163.24,479.63 162.92,479.73 172.57,479.50 C180.92,479.30 191.93,474.86 191.98,471.69 C191.99,470.70 192.37,470.11 192.82,470.39 C193.27,470.67 194.90,470.25 196.44,469.45 C197.97,468.65 199.64,468.00 200.13,468.00 C202.24,468.00 209.15,462.73 210.01,460.46 C210.53,459.11 211.36,458.00 211.87,458.00 C213.15,458.00 216.00,450.53 216.00,447.15 C216.00,445.45 216.99,443.42 218.53,441.97 C220.50,440.12 221.01,438.75 220.83,435.73 C220.70,433.60 221.09,431.56 221.70,431.18 C224.21,429.62 225.11,410.03 225.49,348.50 C225.70,313.85 226.16,280.83 226.51,275.12 C226.92,268.27 226.78,264.38 226.07,263.67 C224.43,262.03 224.79,259.27 226.90,257.29 C228.79,255.51 231.51,242.26 230.82,238.18 C230.65,237.17 231.24,234.80 232.15,232.92 C238.37,219.97 240.00,216.16 240.00,214.56 C240.00,213.56 241.01,211.11 242.23,209.12 C243.46,207.13 244.34,204.77 244.19,203.87 C244.01,202.81 245.00,201.85 246.95,201.17 C248.63,200.58 250.52,198.96 251.16,197.55 C251.80,196.15 252.67,195.00 253.09,195.00 C253.52,195.00 254.14,194.15 254.47,193.11 C254.80,192.07 256.42,190.65 258.07,189.97 C261.82,188.42 263.79,185.24 261.54,184.38 C259.58,183.63 259.54,181.39 261.47,180.65 C262.30,180.33 263.55,180.95 264.33,182.06 C265.86,184.25 268.40,183.82 271.00,180.93 C271.83,180.02 275.20,178.52 278.50,177.61 C289.53,174.56 295.48,172.65 298.30,171.27 C299.85,170.51 304.35,169.64 308.30,169.34 C312.26,169.04 316.23,168.41 317.12,167.93 C319.17,166.84 355.29,167.21 356.11,168.34 C356.45,168.79 358.47,168.68 360.61,168.09 C362.75,167.50 365.74,167.01 367.25,167.01 C369.33,167.00 370.00,166.51 370.00,165.00 C370.00,162.82 370.74,162.55 372.90,163.91 C373.70,164.43 374.02,165.51 373.64,166.49 C373.21,167.61 373.93,169.13 375.75,170.94 C382.69,177.87 384.35,181.25 381.98,183.62 C380.89,184.71 380.22,217.93 381.25,219.60 C382.07,220.92 378.82,227.58 376.14,230.08 C373.14,232.88 368.32,234.18 363.72,233.43 C361.01,232.99 359.19,233.30 357.33,234.52 C355.08,235.99 354.15,236.06 350.68,235.02 C345.74,233.54 331.45,234.49 322.60,236.89 C316.94,238.42 316.52,238.73 316.81,241.17 C317.16,244.14 315.31,245.97 314.39,243.56 C313.52,241.32 311.26,241.64 309.89,244.21 C309.24,245.42 307.79,247.16 306.68,248.06 C305.56,248.96 304.56,250.56 304.44,251.60 C303.72,258.07 303.00,261.08 301.70,263.15 C299.61,266.48 297.66,278.20 298.54,282.17 C299.54,286.66 299.21,294.34 297.80,299.37 C297.14,301.71 296.35,315.64 295.96,331.50 C295.70,342.21 295.54,347.89 295.48,347.88 C295.39,347.88 295.45,338.70 295.61,319.00 C295.89,284.18 296.21,276.93 297.91,267.29 C300.08,254.92 302.36,248.86 307.09,242.88 C313.45,234.86 322.38,232.47 349.38,231.59 C364.18,231.10 371.46,231.02 375.04,227.34 C378.51,223.78 378.51,216.84 378.50,202.89 C378.50,202.29 378.50,201.67 378.50,201.04 C378.50,177.02 378.04,175.00 371.77,171.22 C368.64,169.33 367.46,169.29 344.50,170.12 C317.22,171.12 305.76,172.60 291.53,176.99 C265.96,184.87 251.72,197.12 241.07,220.39 C231.13,242.11 229.35,261.47 228.63,355.50 C228.12,421.25 227.66,427.10 221.57,445.50 C219.66,451.28 216.74,457.97 215.09,460.36 C209.73,468.15 196.95,478.00 192.20,478.00 C191.16,478.00 188.97,478.67 187.33,479.49 C185.69,480.30 180.78,481.51 176.42,482.17 C162.27,484.31 161.51,485.79 161.50,511.00 C161.50,520.62 161.78,530.15 162.13,532.16 C163.12,537.94 168.01,542.00 173.98,542.00 C178.92,542.00 189.95,544.94 196.71,548.06 C202.50,550.72 209.01,556.24 214.97,563.50 C217.50,566.59 221.92,576.35 221.99,579.00 C222.01,579.83 222.66,582.30 223.42,584.50 C224.19,586.70 225.61,593.67 226.58,600.00 C228.10,609.87 228.40,620.56 228.71,675.50 C229.19,760.60 230.03,771.81 237.70,795.50 C244.91,817.75 261.69,836.65 280.79,844.00 C283.93,845.21 287.40,846.56 288.50,847.02 C293.00,848.87 307.09,852.01 316.00,853.14 C321.23,853.81 335.17,854.39 347.00,854.43 C371.80,854.51 373.73,854.01 377.06,846.68 C378.69,843.08 378.96,840.02 378.97,824.50 C378.99,805.01 378.17,799.99 374.38,796.48 C371.37,793.69 368.02,793.20 347.00,792.51 C323.19,791.73 316.92,790.01 308.99,782.08 C303.65,776.74 300.00,770.42 300.00,766.51 C300.00,765.09 299.33,762.33 298.51,760.36 C296.08,754.55 295.01,726.40 295.24,674.00 L 295.45 625.50 L 296.05 674.50 C296.44,706.91 297.04,725.18 297.83,728.45 C298.48,731.18 298.73,734.95 298.37,736.83 C297.45,741.74 299.81,754.77 304.71,771.84 C305.97,776.22 306.57,777.08 308.12,776.68 C310.24,776.12 311.59,777.67 311.17,780.20 C310.89,781.89 316.74,785.63 320.71,786.31 C321.69,786.47 323.94,787.37 325.70,788.31 C329.29,790.21 332.57,790.50 333.50,789.00 C334.34,787.65 338.47,787.81 344.50,789.43 C347.25,790.17 351.52,790.55 354.00,790.27 C360.82,789.48 364.04,789.58 369.29,790.72 C375.08,791.97 377.20,793.77 380.04,799.80 C381.78,803.51 382.07,805.39 381.52,809.46 C381.15,812.23 380.89,820.11 380.95,826.98 C381.03,836.81 381.37,839.63 382.52,840.27 C383.76,840.96 383.58,841.91 381.36,846.30 C379.91,849.16 377.53,852.73 376.08,854.22 C373.57,856.80 373.13,856.90 367.96,856.08 C364.84,855.58 362.26,855.59 361.95,856.09 ZM 0.00 106.06 C0.00,176.51 0.34,211.91 1.00,211.50 C1.55,211.16 2.01,209.22 2.02,207.19 C2.03,203.80 3.94,190.71 5.46,183.50 C8.76,167.90 17.61,142.67 24.69,128.64 C29.75,118.62 40.54,101.19 47.19,92.30 C61.34,73.37 84.30,51.83 104.50,38.53 C114.97,31.63 137.20,20.00 139.90,20.00 C140.98,20.00 142.45,19.42 143.18,18.71 C143.91,18.01 148.32,15.95 153.00,14.13 C161.34,10.90 164.75,9.80 172.25,7.93 C182.53,5.37 185.42,4.84 197.00,3.34 C203.88,2.45 209.93,1.33 210.45,0.86 C210.98,0.38 164.82,0.00 105.70,0.00 L 918.80 0.00 C860.94,0.00 814.03,0.38 814.55,0.84 C815.07,1.31 820.00,2.22 825.50,2.88 C842.84,4.94 851.61,6.88 865.50,11.72 C871.00,13.64 876.40,15.45 877.50,15.75 C878.60,16.04 880.17,16.84 881.00,17.52 C881.83,18.21 883.62,19.10 885.00,19.50 C888.73,20.61 905.00,28.86 907.82,31.07 C909.17,32.13 910.61,33.00 911.03,33.00 C911.70,33.00 919.19,37.68 924.24,41.26 C925.20,41.94 927.61,43.62 929.59,45.00 C943.12,54.38 968.73,80.04 979.51,95.00 C981.69,98.03 983.83,100.95 984.27,101.50 C987.14,105.09 996.76,121.48 1000.01,128.32 C1011.26,152.02 1017.43,171.17 1021.23,194.25 C1022.48,201.81 1023.61,207.99 1023.75,208.00 C1023.89,208.00 1024.00,161.20 1024.00,104.00 L 1024.00 214.23 L 1021.85 213.67 C1019.92,213.17 1019.77,212.63 1020.29,208.19 C1020.61,205.49 1020.44,202.84 1019.91,202.31 C1019.39,201.79 1018.30,196.97 1017.49,191.61 C1016.69,186.25 1015.38,180.43 1014.60,178.68 C1013.81,176.93 1012.94,174.15 1012.65,172.50 C1010.99,162.84 1007.88,153.63 1005.07,150.09 C1003.38,147.96 1002.00,145.26 1002.00,144.11 C1002.00,142.53 1001.38,142.00 999.50,142.00 C996.75,142.00 996.53,141.37 997.96,137.60 C998.68,135.71 998.55,134.70 997.46,133.61 C996.66,132.80 996.00,131.66 996.00,131.07 C996.00,130.48 995.60,130.00 995.11,130.00 C994.63,130.00 993.92,127.94 993.54,125.42 C992.97,121.64 992.28,120.51 989.53,118.88 C986.85,117.31 986.20,116.29 986.20,113.70 C986.20,110.53 981.51,102.00 979.77,102.00 C979.30,102.00 978.36,100.73 977.70,99.18 C975.70,94.48 961.71,78.18 958.75,77.11 C957.24,76.55 956.00,75.63 956.00,75.05 C956.00,74.47 955.16,74.00 954.12,74.00 C951.64,74.00 949.80,71.68 950.61,69.57 C951.44,67.40 947.42,63.11 939.51,57.70 C936.22,55.44 931.72,51.95 929.51,49.93 C926.54,47.22 924.25,46.08 920.67,45.56 C917.16,45.05 915.99,44.48 916.37,43.48 C917.26,41.15 913.77,37.96 910.07,37.72 C907.40,37.55 906.23,36.80 904.76,34.32 C903.51,32.20 901.81,30.91 899.69,30.46 C897.94,30.09 895.60,28.78 894.50,27.54 C891.49,24.15 888.72,23.64 886.02,25.99 C883.36,28.29 882.41,28.47 881.41,26.85 C881.01,26.21 881.48,25.13 882.43,24.43 C883.97,23.30 883.36,22.72 876.99,19.20 C872.72,16.84 867.76,14.96 864.75,14.56 C861.97,14.19 858.35,13.20 856.72,12.36 C854.82,11.37 852.57,11.05 850.45,11.44 C848.18,11.87 846.88,11.64 846.32,10.71 C845.03,8.57 837.32,6.95 827.35,6.72 C822.18,6.59 818.70,6.14 819.35,5.67 C820.01,5.19 819.38,5.08 817.87,5.41 C813.15,6.43 808.38,3.96 808.88,0.75 L 808.88 0.75 C808.88,0.34 675.34,0.00 512.07,0.00 C216.13,0.00 215.13,0.01 214.50,2.00 C213.77,4.29 213.02,4.49 199.50,5.97 C186.69,7.37 178.91,9.05 179.65,10.25 C180.00,10.81 178.20,11.00 175.17,10.71 C171.94,10.41 169.13,10.74 167.43,11.62 C165.97,12.38 163.70,13.00 162.39,13.00 C161.07,13.00 160.00,13.45 160.00,14.00 C160.00,14.55 159.21,15.00 158.25,15.00 C156.64,15.01 150.17,18.42 149.00,19.88 C148.00,21.13 138.89,25.00 136.95,25.00 C135.86,25.00 133.28,26.05 131.23,27.34 C129.18,28.63 126.20,30.00 124.62,30.39 C123.04,30.78 120.42,32.43 118.79,34.05 C117.17,35.67 115.45,37.00 114.97,37.00 C112.34,37.00 109.03,39.58 108.49,42.06 C107.85,44.94 104.10,47.00 99.47,47.00 C98.25,47.00 96.63,47.74 95.89,48.64 C95.14,49.54 92.91,51.29 90.93,52.54 C87.51,54.70 80.89,60.29 74.74,66.21 L 71.92 68.92 L 73.96 70.96 C78.08,75.08 75.63,77.88 71.39,73.89 C69.32,71.95 68.97,71.91 66.94,73.33 C64.74,74.87 59.43,81.72 54.24,89.72 C52.73,92.04 50.99,93.95 50.37,93.97 C48.24,94.03 46.57,97.25 46.07,102.25 C46.03,102.66 45.44,103.00 44.75,103.00 C43.44,103.00 38.00,110.91 38.00,112.82 C38.00,113.43 36.72,115.41 35.15,117.22 C31.77,121.10 30.00,124.27 30.00,126.43 C30.00,127.29 28.47,130.13 26.61,132.75 C24.56,135.61 22.76,139.74 22.06,143.14 C21.42,146.24 20.07,149.53 19.04,150.46 C17.05,152.26 15.93,154.86 14.05,162.00 C10.55,175.29 9.28,179.96 7.64,185.50 C6.83,188.25 5.84,195.58 5.45,201.78 C4.80,212.02 4.52,213.23 2.37,214.92 L 0.00 216.79 ZM 810.76 1022.84 C809.88,1023.72 835.32,1024.00 916.80,1024.00 L 805.10 1024.00 L 807.43 1021.28 C809.50,1018.88 810.55,1018.54 816.63,1018.34 C829.15,1017.93 836.58,1017.06 841.06,1015.47 C843.50,1014.60 847.30,1013.65 849.50,1013.35 C851.70,1013.06 854.50,1012.18 855.71,1011.41 C856.93,1010.63 859.00,1010.00 860.32,1010.00 C863.68,1010.00 868.90,1008.08 872.98,1005.34 C874.90,1004.05 877.55,1003.00 878.88,1003.00 C880.21,1003.00 885.01,1000.97 889.55,998.50 C894.09,996.03 898.59,994.00 899.54,994.00 C900.49,994.00 902.67,992.53 904.38,990.73 C906.10,988.94 910.50,985.94 914.18,984.07 C917.88,982.18 921.07,979.85 921.33,978.83 C921.61,977.79 922.72,977.00 923.91,977.00 C926.76,977.00 930.12,973.49 929.31,971.36 C928.79,970.02 929.10,969.79 930.83,970.25 C932.15,970.59 933.87,970.11 935.20,969.04 L 937.40 967.26 L 935.29 966.59 C933.06,965.89 931.55,963.39 932.87,962.58 C933.29,962.32 934.90,962.75 936.44,963.55 C937.97,964.35 939.67,965.00 940.21,965.00 C940.76,965.00 944.97,961.17 949.59,956.50 C954.20,951.83 958.54,948.00 959.24,948.00 C959.93,947.99 961.29,946.08 962.26,943.75 C963.34,941.15 965.38,938.62 967.51,937.24 C971.13,934.89 971.80,933.20 969.87,931.27 C969.24,930.64 969.01,929.41 969.35,928.52 C969.83,927.27 970.76,927.05 973.49,927.56 C976.86,928.20 977.00,928.10 977.00,925.27 C977.00,923.17 977.66,922.02 979.29,921.28 C980.63,920.67 983.02,917.37 985.04,913.37 C986.94,909.59 989.51,905.68 990.75,904.68 C993.13,902.75 993.80,898.43 991.82,897.77 C990.06,897.19 991.92,894.83 993.84,895.23 C995.99,895.67 999.80,889.18 1000.65,883.64 C1001.01,881.33 1002.96,877.07 1005.06,874.00 C1007.70,870.13 1009.03,866.93 1009.51,863.22 C1009.89,860.32 1010.80,857.34 1011.55,856.60 C1012.29,855.85 1013.41,852.15 1014.03,848.37 C1014.65,844.59 1015.66,839.92 1016.27,838.00 C1016.88,836.08 1017.50,832.25 1017.65,829.50 C1018.48,814.19 1019.49,809.30 1022.00,808.50 C1023.99,807.87 1024.00,806.87 1024.00,511.05 L 1024.00 1024.00 L 1023.97 917.75 C1023.94,827.81 1023.73,811.78 1022.57,813.30 C1021.68,814.48 1021.17,818.22 1021.09,824.17 C1021.02,829.16 1020.79,833.53 1020.58,833.87 C1020.37,834.22 1019.25,839.02 1018.09,844.54 C1011.77,874.61 997.90,903.92 977.17,931.00 C970.46,939.77 968.32,942.22 958.36,952.60 C948.51,962.85 928.40,980.00 926.23,980.00 C925.69,980.00 924.67,980.69 923.98,981.53 C922.33,983.52 914.19,989.00 912.89,989.00 C912.34,989.00 910.22,990.32 908.19,991.93 C904.30,995.02 883.32,1005.81 880.28,1006.28 C879.30,1006.44 876.36,1007.60 873.74,1008.87 C868.49,1011.43 864.63,1012.63 845.50,1017.67 C835.59,1020.29 830.06,1021.17 822.21,1021.39 C816.10,1021.56 811.45,1022.15 810.76,1022.84 ZM 219.00 1023.02 C219.00,1023.66 321.96,1024.00 512.05,1024.00 L 107.00 1024.00 C169.12,1024.00 214.00,1023.63 214.00,1023.11 C214.00,1021.61 211.04,1020.97 207.03,1021.61 C198.38,1022.99 156.91,1012.98 148.29,1007.43 C147.07,1006.64 145.49,1006.00 144.79,1006.00 C142.88,1005.99 119.57,994.51 114.70,991.18 C112.39,989.60 106.51,985.66 101.63,982.42 C70.36,961.67 40.88,927.52 24.00,892.50 C16.49,876.91 8.95,855.76 6.55,843.50 C3.93,830.18 2.04,817.71 2.02,813.75 C2.01,811.69 1.55,810.00 1.00,810.00 C0.34,810.00 0.00,846.33 0.00,917.00 L 0.00 804.91 L 2.55 807.46 C4.61,809.52 5.08,810.91 4.98,814.75 C4.86,819.55 6.12,827.54 10.60,850.50 C10.92,852.15 11.56,853.95 12.00,854.50 C12.45,855.05 13.14,857.19 13.52,859.26 C13.91,861.33 14.63,863.27 15.11,863.57 C15.60,863.87 16.00,865.35 16.00,866.86 C16.00,868.38 17.12,871.14 18.50,873.00 C19.88,874.86 21.00,877.21 21.00,878.21 C21.00,879.21 21.40,880.81 21.89,881.76 C27.15,891.99 30.00,898.20 30.00,899.41 C30.00,900.22 31.80,902.96 34.00,905.50 C36.20,908.04 38.00,910.74 38.00,911.49 C38.00,912.24 38.72,913.58 39.61,914.46 C40.85,915.70 41.53,915.81 42.61,914.91 C44.24,913.55 44.51,915.09 42.91,916.69 C41.69,917.91 43.32,922.00 45.02,922.00 C45.55,922.00 46.63,923.57 47.43,925.50 C48.57,928.22 49.41,928.94 51.20,928.75 C53.16,928.54 53.47,928.92 53.29,931.38 C53.03,935.03 56.70,938.47 58.94,936.66 C60.07,935.76 60.21,935.78 59.61,936.78 C58.54,938.56 63.24,946.25 66.45,947.97 C67.88,948.74 71.11,951.86 73.61,954.90 C76.11,957.94 79.69,961.47 81.57,962.74 C84.83,964.96 85.10,964.98 87.54,963.38 C90.60,961.38 92.16,962.53 90.89,965.85 C90.24,967.55 89.50,968.02 88.24,967.55 C86.81,967.00 86.73,967.11 87.80,968.19 C88.52,968.91 90.55,969.50 92.30,969.50 C95.17,969.50 95.50,969.80 95.50,972.41 C95.50,974.80 96.08,975.51 98.80,976.43 C100.61,977.04 102.45,978.12 102.89,978.82 C103.61,979.98 106.09,981.54 113.00,985.18 C114.38,985.91 116.18,987.27 117.00,988.21 C119.38,990.91 141.92,1002.00 145.04,1002.00 C145.95,1002.00 147.50,1002.90 148.50,1004.00 C149.50,1005.10 151.31,1006.00 152.53,1006.00 C153.75,1006.00 155.36,1006.73 156.10,1007.62 C157.19,1008.94 158.66,1009.13 163.76,1008.66 C168.41,1008.22 170.03,1008.39 169.92,1009.28 C169.55,1012.21 170.18,1013.00 172.87,1013.00 C174.46,1013.00 177.72,1013.71 180.12,1014.57 C185.17,1016.38 197.51,1018.15 207.16,1018.45 C213.63,1018.65 219.00,1020.72 219.00,1023.02 ZM 296.74 607.82 C297.30,624.32 295.68,630.72 294.57,616.39 C293.31,600.03 291.94,590.57 289.54,581.50 C284.17,561.24 276.37,545.74 265.91,534.56 C259.73,527.95 244.01,516.54 239.54,515.42 C235.50,514.41 234.48,512.37 237.18,510.72 C257.43,498.39 262.12,494.59 271.19,483.18 C278.15,474.42 285.17,460.41 287.81,450.00 C291.59,435.11 292.21,432.40 293.27,426.00 C294.59,417.96 295.43,398.12 295.25,379.22 C295.16,370.76 295.48,365.18 296.03,365.52 C297.78,366.60 298.89,373.54 298.89,383.36 C298.89,388.78 299.14,393.47 299.44,393.78 C299.75,394.09 299.26,395.16 298.36,396.15 C296.98,397.68 296.79,399.69 297.21,408.74 C297.55,416.34 297.31,420.38 296.39,422.50 C294.51,426.83 294.57,432.10 296.50,431.36 C297.47,430.99 298.00,431.39 298.00,432.50 C298.00,433.61 297.47,434.01 296.50,433.64 C294.70,432.95 294.62,433.43 296.15,435.86 C297.57,438.14 296.43,443.38 294.66,442.70 C293.36,442.20 290.58,448.54 287.50,459.00 C285.50,465.82 277.52,481.62 274.36,485.05 C273.06,486.46 272.00,488.13 272.00,488.77 C272.00,489.41 271.10,490.41 270.00,491.00 C268.90,491.59 268.00,492.94 268.00,494.00 C268.00,495.26 267.51,495.75 266.58,495.39 C264.92,494.75 260.65,498.63 261.50,500.01 C261.82,500.52 260.83,501.24 259.29,501.61 C255.78,502.44 247.29,507.81 246.59,509.63 C246.30,510.38 245.18,511.00 244.09,511.00 C243.01,511.00 241.84,511.45 241.50,512.00 C241.16,512.55 241.81,513.00 242.94,513.00 C244.07,513.00 246.01,514.01 247.25,515.25 C249.62,517.62 253.66,520.11 258.25,522.04 C259.76,522.68 261.00,523.61 261.00,524.11 C261.00,525.93 266.77,531.00 268.86,531.00 C270.04,531.00 271.03,531.34 271.07,531.75 C271.38,534.88 272.27,537.76 273.49,539.63 C276.07,543.56 279.46,546.75 281.50,547.15 C283.10,547.47 283.50,548.35 283.50,551.52 C283.50,553.71 284.05,556.46 284.72,557.62 C285.39,558.79 286.41,561.94 286.99,564.62 C288.58,571.94 292.03,579.95 294.07,581.04 C295.48,581.79 295.75,582.77 295.31,585.50 C294.81,588.58 294.99,589.00 296.87,589.00 C299.29,589.00 299.90,592.44 297.64,593.31 C296.54,593.73 296.36,596.60 296.74,607.82 ZM 567.25 265.25 C565.74,265.92 564.24,266.83 563.91,267.28 C563.59,267.73 562.79,267.45 562.13,266.66 C560.43,264.60 566.53,259.36 568.61,261.09 C570.67,262.80 570.31,263.90 567.25,265.25 ZM 425.48 565.83 C424.06,566.47 422.25,567.00 421.45,567.00 C419.16,567.00 419.76,564.02 422.25,563.10 C427.04,561.32 429.96,563.79 425.48,565.83 ZM 906.33 980.16 C907.41,980.40 906.72,981.59 903.92,984.35 C900.71,987.50 900.00,987.85 900.00,986.28 C900.00,983.87 904.31,979.70 906.33,980.16 ZM 524.51 587.98 C523.05,590.35 520.56,588.31 521.60,585.59 C522.39,583.54 525.61,583.53 526.39,585.58 C527.23,587.76 527.16,588.21 526.07,587.54 C525.56,587.23 524.86,587.42 524.51,587.98 ZM 456.64 552.50 C455.61,555.18 453.00,554.06 453.00,550.94 C453.00,548.70 455.90,547.57 456.64,549.52 C456.96,550.33 456.95,551.67 456.64,552.50 ZM 307.00 859.50 C307.00,860.41 306.12,860.97 304.75,860.92 C299.25,860.73 298.08,858.00 303.50,858.00 C305.94,858.00 307.00,858.45 307.00,859.50 ZM 188.00 468.87 C188.00,470.32 184.29,471.79 182.91,470.89 C181.73,470.12 181.81,469.73 183.35,468.55 C185.08,467.22 188.00,467.42 188.00,468.87 ZM 951.00 78.56 C951.00,80.49 947.37,80.41 946.62,78.46 C945.98,76.78 948.26,75.42 949.95,76.47 C950.53,76.83 951.00,77.77 951.00,78.56 ZM 358.44 680.09 C357.58,681.48 356.28,681.18 355.61,679.42 C354.66,676.95 354.88,676.00 356.39,676.00 C357.96,676.00 359.31,678.69 358.44,680.09 ZM 602.42 246.39 C600.32,247.20 600.23,247.18 599.43,245.89 C598.71,244.71 600.64,243.04 602.75,243.02 C604.55,242.99 604.29,245.67 602.42,246.39 ZM 713.97 581.28 C713.95,581.95 712.79,583.34 711.38,584.36 C708.85,586.21 708.83,586.21 709.17,583.97 C709.52,581.58 714.03,579.06 713.97,581.28 ZM 535.24 367.50 C535.52,368.96 535.26,370.00 534.60,370.00 C533.22,370.00 530.89,366.44 531.73,365.61 C533.09,364.24 534.80,365.15 535.24,367.50 ZM 550.00 542.44 C550.00,544.18 548.94,544.89 547.25,544.28 C545.23,543.56 545.82,541.00 548.00,541.00 C549.10,541.00 550.00,541.65 550.00,542.44 ZM 367.06 860.50 C367.06,861.05 365.92,861.64 364.53,861.82 C362.73,862.04 362.00,861.66 362.00,860.50 C362.00,859.34 362.73,858.96 364.53,859.18 C365.92,859.36 367.06,859.95 367.06,860.50 ZM 716.38 319.46 C715.62,321.44 714.10,321.44 713.35,319.46 C712.59,317.49 713.48,316.59 715.44,317.34 C716.32,317.68 716.72,318.58 716.38,319.46 ZM 536.00 609.86 C536.00,611.54 532.94,612.02 532.34,610.44 C532.02,609.60 532.01,608.65 532.33,608.33 C533.13,607.53 536.00,608.73 536.00,609.86 ZM 121.97 982.47 C124.21,985.17 122.49,986.15 120.06,983.56 C118.23,981.61 118.02,981.00 119.20,981.00 C120.06,981.00 121.30,981.66 121.97,982.47 ZM 534.00 698.67 C534.00,700.16 531.42,700.49 530.57,699.11 C529.89,698.01 532.44,695.77 533.34,696.68 C533.70,697.04 534.00,697.93 534.00,698.67 ZM 701.00 274.00 C701.00,275.99 699.93,276.60 698.67,275.33 C697.45,274.12 697.98,272.00 699.50,272.00 C700.33,272.00 701.00,272.89 701.00,274.00 ZM 819.50 1013.00 C819.16,1013.55 817.78,1014.00 816.44,1014.00 C815.10,1014.00 814.00,1013.55 814.00,1013.00 C814.00,1012.45 815.38,1012.00 817.06,1012.00 C818.84,1012.00 819.86,1012.42 819.50,1013.00 ZM 638.09 243.50 C638.11,244.72 635.67,245.34 634.70,244.37 C633.33,243.00 634.03,241.87 636.04,242.18 C637.16,242.36 638.09,242.95 638.09,243.50 ZM 212.82 578.33 C213.01,579.32 212.50,580.00 211.57,580.00 C210.65,580.00 210.00,579.15 210.00,577.92 C210.00,575.48 212.34,575.82 212.82,578.33 ZM 384.00 858.43 C384.00,859.35 383.14,860.00 381.92,860.00 C379.48,860.00 379.82,857.66 382.33,857.18 C383.32,856.99 384.00,857.50 384.00,858.43 ZM 717.75 574.75 C717.99,575.48 717.31,576.00 716.08,576.00 C714.85,576.00 714.00,575.35 714.00,574.43 C714.00,572.59 717.12,572.86 717.75,574.75 ZM 857.00 1008.94 C857.00,1010.22 855.76,1010.82 854.25,1010.28 C852.28,1009.57 852.79,1008.00 855.00,1008.00 C856.10,1008.00 857.00,1008.42 857.00,1008.94 ZM 461.00 545.44 C461.00,546.23 460.58,547.14 460.07,547.46 C458.88,548.19 457.68,546.32 458.50,545.00 C459.42,543.51 461.00,543.79 461.00,545.44 ZM 693.00 276.50 C693.00,277.33 692.33,278.00 691.50,278.00 C690.67,278.00 690.00,277.33 690.00,276.50 C690.00,275.67 690.67,275.00 691.50,275.00 C692.33,275.00 693.00,275.67 693.00,276.50 ZM 1012.00 184.50 C1012.00,186.05 1010.82,186.49 1009.69,185.36 C1008.89,184.56 1009.80,183.00 1011.06,183.00 C1011.58,183.00 1012.00,183.68 1012.00,184.50 ZM 95.00 58.94 C95.00,60.20 93.44,61.11 92.64,60.31 C91.51,59.18 91.95,58.00 93.50,58.00 C94.32,58.00 95.00,58.42 95.00,58.94 ZM 662.32 493.61 C662.03,494.38 661.16,495.00 660.39,495.00 C658.31,495.00 658.71,493.31 660.93,492.73 C662.28,492.38 662.69,492.64 662.32,493.61 ZM 658.57 485.23 C658.83,485.50 658.40,486.25 657.61,486.91 C656.63,487.72 655.97,487.77 655.53,487.04 C654.87,485.98 657.66,484.33 658.57,485.23 ZM 863.77 615.19 C863.17,617.00 861.33,617.26 861.33,615.53 C861.33,614.69 861.97,614.00 862.75,614.00 C863.53,614.00 863.99,614.53 863.77,615.19 ZM 548.00 276.50 C547.32,277.33 546.59,278.00 546.38,278.00 C546.17,278.00 546.00,277.33 546.00,276.50 C546.00,275.67 546.73,275.00 547.62,275.00 C548.95,275.00 549.02,275.27 548.00,276.50 ZM 539.00 702.00 C539.00,702.55 538.33,703.00 537.50,703.00 C536.67,703.00 536.00,702.55 536.00,702.00 C536.00,701.45 536.67,701.00 537.50,701.00 C538.33,701.00 539.00,701.45 539.00,702.00 ZM 541.00 682.50 C541.00,683.33 540.55,684.00 540.00,684.00 C539.45,684.00 539.00,683.33 539.00,682.50 C539.00,681.67 539.45,681.00 540.00,681.00 C540.55,681.00 541.00,681.67 541.00,682.50 ZM 229.67 228.34 C230.77,229.44 229.48,230.92 228.14,230.09 C227.14,229.47 227.09,229.06 227.96,228.52 C228.61,228.13 229.38,228.04 229.67,228.34 ZM 716.00 418.00 C716.00,418.55 715.58,419.00 715.06,419.00 C714.54,419.00 713.84,418.55 713.50,418.00 C713.16,417.45 713.58,417.00 714.44,417.00 C715.30,417.00 716.00,417.45 716.00,418.00 ZM 520.00 434.00 C520.00,434.55 519.55,435.00 519.00,435.00 C518.45,435.00 518.00,434.55 518.00,434.00 C518.00,433.45 518.45,433.00 519.00,433.00 C519.55,433.00 520.00,433.45 520.00,434.00 ZM 379.68 711.81 C379.97,712.53 379.94,713.40 379.60,713.73 C379.27,714.06 379.04,713.47 379.08,712.42 C379.13,711.25 379.36,711.01 379.68,711.81 Z" fill="rgb(4,51,245)"/>
<path d="M 370.57 794.35 C367.80,793.76 364.08,793.75 359.02,793.82 C343.22,794.04 325.57,792.53 319.20,790.42 C309.26,787.13 301.58,778.18 298.64,766.50 C297.53,762.09 296.68,753.11 296.10,739.93 C296.65,751.08 297.45,757.83 298.51,760.36 C299.33,762.33 300.00,765.09 300.00,766.51 C300.00,770.42 303.65,776.74 308.99,782.08 C316.92,790.01 323.19,791.73 347.00,792.51 C360.95,792.97 367.12,793.34 370.57,794.35 ZM 810.76 1022.84 C811.45,1022.15 816.10,1021.56 822.21,1021.39 C825.23,1021.30 827.90,1021.12 830.61,1020.78 C827.35,1021.41 824.27,1021.94 821.50,1022.34 C812.43,1023.63 821.36,1023.78 917.75,1023.88 L 1024.00 1024.00 L 1023.88 918.75 C1023.84,876.00 1023.70,839.36 1023.55,823.45 C1023.87,836.35 1023.95,863.71 1023.97,917.75 L 1024.00 1024.00 L 916.80 1024.00 C835.32,1024.00 809.88,1023.72 810.76,1022.84 ZM 288.36 447.84 C290.01,440.46 291.67,428.34 294.23,405.00 C294.74,400.38 295.14,392.95 295.27,386.22 C295.22,402.82 294.43,418.95 293.27,426.00 C292.26,432.08 291.66,434.83 288.36,447.84 ZM 377.99 181.69 C377.69,180.81 377.30,180.02 376.80,179.06 C372.40,170.55 372.26,170.51 344.70,170.64 C337.77,170.67 331.98,170.77 326.93,170.98 C332.01,170.64 337.77,170.37 344.50,170.12 C367.46,169.29 368.64,169.33 371.77,171.22 C375.62,173.54 377.28,175.20 377.99,181.69 ZM 190.66 1019.93 C198.06,1021.32 204.25,1022.06 207.03,1021.61 C211.04,1020.97 214.00,1021.61 214.00,1023.11 C214.00,1023.19 212.83,1023.27 210.61,1023.35 L 199.50 1021.53 C196.61,1021.06 193.64,1020.52 190.66,1019.93 ZM 1023.23 815.77 C1022.90,817.53 1022.23,821.67 1021.57,826.00 C1021.36,827.37 1021.15,828.72 1020.92,830.07 C1021.00,828.41 1021.06,826.35 1021.09,824.17 C1021.17,818.22 1021.68,814.48 1022.57,813.30 C1022.84,812.95 1023.06,813.54 1023.23,815.77 ZM 119.11 29.90 C130.44,23.53 143.01,17.00 144.44,17.00 C144.97,17.00 146.94,16.43 149.50,15.55 C146.30,16.92 143.72,18.19 143.18,18.71 C142.45,19.42 140.98,20.00 139.90,20.00 C138.18,20.00 128.57,24.70 119.11,29.90 ZM 167.47 1023.86 C150.61,1023.95 129.99,1024.00 107.00,1024.00 L 0.00 1024.00 L 106.75 1023.91 ZM 378.93 832.05 C378.92,829.42 378.87,826.20 378.80,822.19 C378.62,812.07 378.43,805.52 377.37,801.30 C378.64,805.30 378.98,811.86 378.97,824.50 C378.97,827.43 378.96,829.92 378.93,832.05 ZM 173.48 7.63 C183.78,4.97 189.15,4.02 199.00,2.90 C204.77,2.25 209.93,1.32 210.45,0.85 C210.45,0.85 210.45,0.85 210.45,0.85 C210.41,0.73 207.50,0.62 202.24,0.52 C186.41,0.21 149.35,0.00 105.70,0.00 C149.68,0.00 186.50,0.21 202.24,0.52 C207.57,0.62 210.50,0.73 210.45,0.85 C210.46,0.85 210.45,0.86 210.45,0.86 C209.93,1.33 203.88,2.45 197.00,3.34 C185.89,4.78 182.78,5.33 173.48,7.63 ZM 1006.80 880.47 C999.49,898.07 989.78,914.53 977.17,931.00 C989.54,914.84 999.46,897.89 1006.80,880.47 ZM 295.26 702.29 C295.19,693.44 295.18,683.77 295.23,673.34 L 295.45 625.50 L 295.24 674.00 C295.20,684.38 295.20,693.80 295.26,702.29 ZM 375.04 227.34 C371.46,231.02 364.18,231.10 349.38,231.59 C364.52,231.09 371.76,230.95 375.27,227.10 C375.20,227.18 375.12,227.26 375.04,227.34 ZM 297.58 368.56 C297.69,368.94 297.80,369.35 297.92,369.79 C298.22,370.96 298.50,373.46 298.68,376.40 C298.46,373.14 298.08,370.46 297.58,368.56 ZM 377.06 846.68 C375.67,849.73 374.53,851.60 371.89,852.73 C374.60,851.56 375.73,849.60 377.16,846.37 C377.37,845.90 377.55,845.47 377.71,845.03 C377.52,845.60 377.31,846.13 377.06,846.68 ZM 1019.15 839.63 C1018.77,841.54 1018.36,843.42 1017.93,845.28 C1017.99,845.03 1018.04,844.79 1018.09,844.54 C1018.46,842.79 1018.82,841.12 1019.15,839.63 ZM 296.24 365.68 C296.49,365.72 296.79,366.22 297.14,367.19 C296.87,366.49 296.57,365.98 296.24,365.68 ZM 293.50 176.40 C292.85,176.59 292.20,176.79 291.53,176.99 C265.97,184.86 251.72,197.12 241.07,220.39 C251.72,197.12 265.96,184.87 291.53,176.99 C292.19,176.78 292.85,176.59 293.50,176.40 Z" fill="rgb(14,53,219)"/>
<path d="M 219.00 1023.02 C219.00,1020.72 213.63,1018.65 207.16,1018.45 C197.51,1018.15 185.17,1016.38 180.12,1014.57 C177.72,1013.71 174.46,1013.00 172.87,1013.00 C170.18,1013.00 169.55,1012.21 169.92,1009.28 C170.03,1008.39 168.41,1008.22 163.76,1008.66 C158.66,1009.13 157.19,1008.94 156.10,1007.62 C155.36,1006.73 153.75,1006.00 152.53,1006.00 C151.31,1006.00 149.50,1005.10 148.50,1004.00 C147.50,1002.90 145.95,1002.00 145.04,1002.00 C141.92,1002.00 119.38,990.91 117.00,988.21 C116.18,987.27 114.38,985.91 113.00,985.18 C106.09,981.54 103.61,979.98 102.89,978.82 C102.45,978.12 100.61,977.04 98.80,976.43 C96.08,975.51 95.50,974.80 95.50,972.41 C95.50,969.80 95.17,969.50 92.30,969.50 C90.55,969.50 88.52,968.91 87.80,968.19 C86.73,967.11 86.81,967.00 88.24,967.55 C89.50,968.02 90.24,967.55 90.89,965.85 C92.16,962.53 90.60,961.38 87.54,963.38 C85.10,964.98 84.83,964.96 81.57,962.74 C79.69,961.47 76.11,957.94 73.61,954.90 C71.11,951.86 67.88,948.74 66.45,947.97 C63.24,946.25 58.54,938.56 59.61,936.78 C60.21,935.78 60.07,935.76 58.94,936.66 C56.70,938.47 53.03,935.03 53.29,931.38 C53.47,928.92 53.16,928.54 51.20,928.75 C49.41,928.94 48.57,928.22 47.43,925.50 C46.63,923.57 45.55,922.00 45.02,922.00 C43.32,922.00 41.69,917.91 42.91,916.69 C44.51,915.09 44.24,913.55 42.61,914.91 C41.53,915.81 40.85,915.70 39.61,914.46 C38.72,913.58 38.00,912.24 38.00,911.49 C38.00,910.74 36.20,908.04 34.00,905.50 C31.80,902.96 30.00,900.22 30.00,899.41 C30.00,898.20 27.15,891.99 21.89,881.76 C21.40,880.81 21.00,879.21 21.00,878.21 C21.00,877.21 19.88,874.86 18.50,873.00 C17.12,871.14 16.00,868.38 16.00,866.86 C16.00,865.35 15.60,863.87 15.11,863.57 C14.63,863.27 13.91,861.33 13.52,859.26 C13.14,857.19 12.45,855.05 12.00,854.50 C11.56,853.95 10.92,852.15 10.60,850.50 C6.12,827.54 4.86,819.55 4.98,814.75 C5.08,810.91 4.61,809.52 2.55,807.46 L 0.00 804.91 L 0.00 216.79 L 2.37 214.92 C4.52,213.23 4.80,212.02 5.45,201.78 C5.84,195.58 6.83,188.25 7.64,185.50 C9.28,179.96 10.55,175.29 14.05,162.00 C15.93,154.86 17.05,152.26 19.04,150.46 C20.07,149.53 21.42,146.24 22.06,143.14 C22.76,139.74 24.56,135.61 26.61,132.75 C28.47,130.13 30.00,127.29 30.00,126.43 C30.00,124.27 31.77,121.10 35.15,117.22 C36.72,115.41 38.00,113.43 38.00,112.82 C38.00,110.91 43.44,103.00 44.75,103.00 C45.44,103.00 46.03,102.66 46.07,102.25 C46.57,97.25 48.24,94.03 50.37,93.97 C50.99,93.95 52.73,92.04 54.24,89.72 C59.43,81.72 64.74,74.87 66.94,73.33 C68.97,71.91 69.32,71.95 71.39,73.89 C75.63,77.88 78.08,75.08 73.96,70.96 L 71.92 68.92 L 74.74 66.21 C80.89,60.29 87.51,54.70 90.93,52.54 C92.91,51.29 95.14,49.54 95.89,48.64 C96.63,47.74 98.25,47.00 99.47,47.00 C104.10,47.00 107.85,44.94 108.49,42.06 C109.03,39.58 112.34,37.00 114.97,37.00 C115.45,37.00 117.17,35.67 118.79,34.05 C120.42,32.43 123.04,30.78 124.62,30.39 C126.20,30.00 129.18,28.63 131.23,27.34 C133.28,26.05 135.86,25.00 136.95,25.00 C138.89,25.00 148.00,21.13 149.00,19.88 C150.17,18.42 156.64,15.01 158.25,15.00 C159.21,15.00 160.00,14.55 160.00,14.00 C160.00,13.45 161.07,13.00 162.39,13.00 C163.70,13.00 165.97,12.38 167.43,11.62 C169.13,10.74 171.94,10.41 175.17,10.71 C178.20,11.00 180.00,10.81 179.65,10.25 C178.91,9.05 186.69,7.37 199.50,5.97 C213.02,4.49 213.77,4.29 214.50,2.00 C215.13,0.01 216.13,0.00 512.07,0.00 C675.34,0.00 808.88,0.34 808.88,0.75 L 808.88 0.75 C808.38,3.96 813.15,6.43 817.87,5.41 C819.38,5.08 820.01,5.19 819.35,5.67 C818.70,6.14 822.18,6.59 827.35,6.72 C837.32,6.95 845.03,8.57 846.32,10.71 C846.88,11.64 848.18,11.87 850.45,11.44 C852.57,11.05 854.82,11.37 856.72,12.36 C858.35,13.20 861.97,14.19 864.75,14.56 C867.76,14.96 872.72,16.84 876.99,19.20 C883.36,22.72 883.97,23.30 882.43,24.43 C881.48,25.13 881.01,26.21 881.41,26.85 C882.41,28.47 883.36,28.29 886.02,25.99 C888.72,23.64 891.49,24.15 894.50,27.54 C895.60,28.78 897.94,30.09 899.69,30.46 C901.81,30.91 903.51,32.20 904.76,34.32 C906.23,36.80 907.40,37.55 910.07,37.72 C913.77,37.96 917.26,41.15 916.37,43.48 C915.99,44.48 917.16,45.05 920.67,45.56 C924.25,46.08 926.54,47.22 929.51,49.93 C931.72,51.95 936.22,55.44 939.51,57.70 C947.42,63.11 951.44,67.40 950.61,69.57 C949.80,71.68 951.64,74.00 954.12,74.00 C955.16,74.00 956.00,74.47 956.00,75.05 C956.00,75.63 957.24,76.55 958.75,77.11 C961.71,78.18 975.70,94.48 977.70,99.18 C978.36,100.73 979.30,102.00 979.77,102.00 C981.51,102.00 986.20,110.53 986.20,113.70 C986.20,116.29 986.85,117.31 989.53,118.88 C992.28,120.51 992.97,121.64 993.54,125.42 C993.92,127.94 994.63,130.00 995.11,130.00 C995.60,130.00 996.00,130.48 996.00,131.07 C996.00,131.66 996.66,132.80 997.46,133.61 C998.55,134.70 998.68,135.71 997.96,137.60 C996.53,141.37 996.75,142.00 999.50,142.00 C1001.38,142.00 1002.00,142.53 1002.00,144.11 C1002.00,145.26 1003.38,147.96 1005.07,150.09 C1007.88,153.63 1010.99,162.84 1012.65,172.50 C1012.94,174.15 1013.81,176.93 1014.60,178.68 C1015.38,180.43 1016.69,186.25 1017.49,191.61 C1018.30,196.97 1019.39,201.79 1019.91,202.31 C1020.44,202.84 1020.61,205.49 1020.29,208.19 C1019.77,212.63 1019.92,213.17 1021.85,213.67 L 1024.00 214.23 L 1024.00 511.05 C1024.00,806.87 1023.99,807.87 1022.00,808.50 C1019.49,809.30 1018.48,814.19 1017.65,829.50 C1017.50,832.25 1016.88,836.08 1016.27,838.00 C1015.66,839.92 1014.65,844.59 1014.03,848.37 C1013.41,852.15 1012.29,855.85 1011.55,856.60 C1010.80,857.34 1009.89,860.32 1009.51,863.22 C1009.03,866.93 1007.70,870.13 1005.06,874.00 C1002.96,877.07 1001.01,881.33 1000.65,883.64 C999.80,889.18 995.99,895.67 993.84,895.23 C991.92,894.83 990.06,897.19 991.82,897.77 C993.80,898.43 993.13,902.75 990.75,904.68 C989.51,905.68 986.94,909.59 985.04,913.37 C983.02,917.37 980.63,920.67 979.29,921.28 C977.66,922.02 977.00,923.17 977.00,925.27 C977.00,928.10 976.86,928.20 973.49,927.56 C970.76,927.05 969.83,927.27 969.35,928.52 C969.01,929.41 969.24,930.64 969.87,931.27 C971.80,933.20 971.13,934.89 967.51,937.24 C965.38,938.62 963.34,941.15 962.26,943.75 C961.29,946.08 959.93,947.99 959.24,948.00 C958.54,948.00 954.20,951.83 949.59,956.50 C944.97,961.17 940.76,965.00 940.21,965.00 C939.67,965.00 937.97,964.35 936.44,963.55 C934.90,962.75 933.29,962.32 932.87,962.58 C931.55,963.39 933.06,965.89 935.29,966.59 L 937.40 967.26 L 935.20 969.04 C933.87,970.11 932.15,970.59 930.83,970.25 C929.10,969.79 928.79,970.02 929.31,971.36 C930.12,973.49 926.76,977.00 923.91,977.00 C922.72,977.00 921.61,977.79 921.33,978.83 C921.07,979.85 917.88,982.18 914.18,984.07 C910.50,985.94 906.10,988.94 904.38,990.73 C902.67,992.53 900.49,994.00 899.54,994.00 C898.59,994.00 894.09,996.03 889.55,998.50 C885.01,1000.97 880.21,1003.00 878.88,1003.00 C877.55,1003.00 874.90,1004.05 872.98,1005.34 C868.90,1008.08 863.68,1010.00 860.32,1010.00 C859.00,1010.00 856.93,1010.63 855.71,1011.41 C854.50,1012.18 851.70,1013.06 849.50,1013.35 C847.30,1013.65 843.50,1014.60 841.06,1015.47 C836.58,1017.06 829.15,1017.93 816.63,1018.34 C810.55,1018.54 809.50,1018.88 807.43,1021.28 L 805.10 1024.00 L 512.05 1024.00 C321.96,1024.00 219.00,1023.66 219.00,1023.02 ZM 781.30 742.78 C796.34,743.08 801.41,742.21 807.36,738.34 C809.48,736.96 813.52,735.14 816.33,734.31 C819.15,733.47 822.19,731.94 823.09,730.89 C824.00,729.85 825.29,729.00 825.97,729.00 C826.64,729.00 828.39,727.74 829.85,726.21 C831.31,724.67 834.74,721.86 837.48,719.96 C842.58,716.43 844.67,714.24 848.82,708.12 C850.12,706.21 852.26,703.79 853.59,702.75 C855.00,701.64 856.00,699.81 856.00,698.33 C856.00,695.85 858.17,691.12 860.83,687.82 C862.97,685.16 865.40,667.55 865.34,655.00 C865.30,644.31 864.48,637.68 862.12,629.00 C861.60,627.08 860.44,622.84 859.55,619.58 C858.66,616.32 858.30,613.40 858.75,613.08 C860.42,611.90 859.42,609.57 857.01,609.00 C855.63,608.68 854.35,607.58 854.15,606.56 C853.76,604.51 844.68,595.00 843.11,595.00 C842.58,595.00 841.85,594.10 841.50,593.00 C841.15,591.90 840.45,591.00 839.93,591.00 C839.42,591.00 839.00,590.16 839.00,589.12 C839.00,586.90 837.43,585.50 834.00,584.67 C832.62,584.33 830.60,582.70 829.50,581.03 C828.40,579.37 826.96,578.00 826.30,578.00 C825.01,578.00 816.51,573.66 814.46,571.96 C813.09,570.83 812.31,570.59 803.82,568.72 C797.04,567.23 790.00,561.93 790.00,558.33 C790.00,556.80 788.84,555.26 786.57,553.77 C782.68,551.22 781.57,547.86 783.86,545.57 C785.03,544.40 785.13,543.73 784.27,542.87 C783.41,542.01 782.69,542.17 781.38,543.48 C779.71,545.15 779.59,545.13 778.84,543.10 C778.41,541.94 777.99,540.65 777.92,540.24 C777.84,539.83 776.93,538.31 775.89,536.85 C774.85,535.39 774.00,533.46 774.00,532.56 C774.00,531.67 773.36,530.69 772.58,530.39 C771.80,530.09 769.93,527.41 768.42,524.42 C766.91,521.44 765.30,519.00 764.84,519.00 C764.38,519.00 764.00,517.72 764.00,516.15 C764.00,514.58 763.11,512.50 762.00,511.50 C760.90,510.50 760.00,509.07 760.00,508.30 C760.00,507.54 759.05,505.63 757.88,504.05 C756.60,502.32 756.07,500.66 756.54,499.85 C756.97,499.11 756.94,498.84 756.48,499.26 C755.06,500.55 751.00,495.84 751.00,492.91 C751.00,491.10 750.11,489.51 748.37,488.25 C746.39,486.81 745.67,485.32 745.45,482.20 C745.11,477.40 744.43,476.00 742.48,476.00 C741.70,476.00 740.59,475.10 740.00,474.00 C739.15,472.40 739.24,472.00 740.46,472.00 C741.35,472.00 742.00,471.12 742.00,469.93 C742.00,468.47 741.48,467.97 740.25,468.24 C739.29,468.45 738.61,469.15 738.75,469.81 C738.89,470.46 738.64,471.00 738.20,471.00 C736.55,471.00 735.00,468.51 735.00,465.86 C735.00,464.35 734.54,462.84 733.98,462.49 C733.42,462.14 733.27,461.37 733.64,460.78 C734.01,460.18 733.86,459.97 733.30,460.31 C732.75,460.66 731.77,459.80 731.14,458.40 C730.45,456.90 730.40,456.13 731.00,456.50 C732.57,457.47 733.38,454.16 731.99,452.49 C730.30,450.45 729.49,450.62 728.22,453.25 C727.50,454.74 727.11,454.98 727.07,453.95 C727.03,453.09 725.57,450.17 723.82,447.45 C722.08,444.73 719.58,440.48 718.26,438.00 C716.95,435.52 714.57,431.25 712.96,428.50 C711.36,425.75 710.04,422.73 710.02,421.79 C710.01,420.85 708.42,418.83 706.50,417.29 C704.41,415.63 703.00,413.61 703.00,412.31 C703.00,411.10 702.57,409.85 702.03,409.52 C701.50,409.19 699.98,406.77 698.66,404.13 C696.53,399.89 696.43,399.22 697.80,398.35 C700.18,396.86 698.58,393.68 695.88,394.54 L 695.77 394.57 C695.01,394.81 694.51,394.97 694.36,394.81 C694.08,394.50 695.05,393.04 697.87,388.82 L 698.08 388.50 C699.55,386.30 701.78,381.66 703.03,378.19 C704.29,374.72 706.48,370.62 707.91,369.09 C710.05,366.79 710.52,365.29 710.61,360.41 C710.78,351.82 713.39,336.70 714.79,336.24 C716.51,335.66 716.29,332.00 714.54,332.00 C713.73,332.00 712.67,331.21 712.17,330.25 C710.74,327.46 709.81,315.23 710.98,314.51 C712.52,313.56 712.20,310.29 710.50,309.64 C709.67,309.32 709.00,309.50 709.00,310.03 C709.00,313.85 704.53,306.60 703.51,301.11 C703.26,299.80 702.37,297.96 701.53,297.03 C700.69,296.10 700.00,294.85 700.00,294.25 C700.00,293.65 698.80,291.72 697.32,289.97 C695.11,287.34 694.85,286.47 695.80,284.94 C696.97,283.08 696.02,281.66 693.50,281.48 C690.82,281.30 687.00,278.43 686.13,275.95 C685.60,274.42 685.40,272.94 685.68,272.65 C685.97,272.37 685.30,272.37 684.21,272.65 C683.12,272.94 681.92,272.69 681.55,272.09 C681.16,271.44 681.70,271.00 682.88,271.00 C685.27,271.00 686.22,269.75 685.43,267.67 C684.54,265.35 681.96,264.80 679.53,266.39 C677.26,267.88 674.25,267.03 675.37,265.22 C675.71,264.66 674.99,264.20 673.74,264.19 C669.29,264.13 665.44,262.70 662.50,259.99 C660.85,258.47 658.15,256.98 656.50,256.68 C650.08,255.52 640.45,252.82 639.55,251.93 C639.03,251.42 633.58,251.00 627.45,251.00 C616.93,251.00 616.14,250.86 613.59,248.50 C610.32,245.46 608.98,245.35 608.28,248.05 C607.95,249.30 606.63,250.32 604.89,250.67 C603.33,250.98 601.53,251.86 600.90,252.62 C600.27,253.38 599.25,254.00 598.63,254.01 C598.01,254.01 596.15,254.73 594.50,255.60 C592.85,256.47 588.90,257.30 585.73,257.44 C581.57,257.62 579.34,258.25 577.73,259.73 C576.50,260.85 574.49,262.08 573.25,262.45 C572.01,262.83 571.00,263.89 570.99,264.82 C570.99,265.74 569.75,267.29 568.24,268.25 C562.27,272.06 558.46,275.19 557.65,276.94 C557.18,277.95 555.71,279.35 554.37,280.07 C553.04,280.78 551.68,282.42 551.36,283.71 C551.04,284.99 550.04,286.60 549.14,287.29 C546.99,288.91 545.00,292.52 545.00,294.79 C545.00,297.01 539.40,306.03 536.95,307.74 C535.50,308.76 535.25,310.10 535.57,315.20 C535.86,319.71 535.53,322.07 534.37,323.83 C533.50,325.17 532.80,327.89 532.81,329.88 C532.87,338.06 535.14,361.40 536.04,363.07 C536.57,364.06 537.00,366.02 537.00,367.43 C537.00,368.85 537.45,370.00 538.00,370.00 C538.55,370.00 539.00,371.05 539.00,372.33 C539.00,373.60 540.07,375.66 541.39,376.90 C542.91,378.33 543.59,379.85 543.26,381.10 C542.98,382.18 543.48,383.87 544.38,384.86 C545.27,385.85 545.72,386.95 545.36,387.30 C545.01,387.65 546.18,389.30 547.95,390.95 C550.79,393.60 551.00,394.14 549.71,395.43 C548.90,396.24 547.95,398.86 547.59,401.26 C546.89,405.89 537.85,420.50 535.67,420.50 C533.85,420.50 533.00,422.30 534.16,423.69 C534.92,424.61 534.37,426.09 532.10,429.17 C530.40,431.50 529.00,434.19 529.00,435.16 C529.00,436.13 528.09,437.41 526.99,438.01 C525.46,438.82 525.04,438.78 525.24,437.85 C525.38,437.17 524.71,436.45 523.75,436.24 C521.58,435.76 521.34,438.81 523.48,439.63 C525.33,440.34 523.69,444.00 521.52,444.00 C519.52,444.00 518.89,445.42 518.60,450.59 C518.40,454.02 517.69,455.73 515.67,457.61 C514.20,458.97 513.00,460.51 513.00,461.04 C513.00,464.69 511.17,467.15 508.70,466.80 C506.84,466.55 506.43,467.10 505.95,470.50 C505.64,472.70 504.75,475.62 503.97,477.00 L 502.55 479.50 L 502.03 476.01 C501.67,473.63 500.90,472.41 499.60,472.16 C497.92,471.84 497.78,472.24 498.33,475.64 C498.67,477.75 499.36,479.62 499.86,479.79 C501.79,480.43 496.77,492.98 493.73,495.10 C493.26,495.42 491.29,498.80 489.35,502.60 C484.87,511.34 484.38,511.91 481.82,511.24 C479.89,510.74 479.77,510.98 480.41,514.35 C481.02,517.62 480.72,518.39 477.55,521.66 C475.60,523.66 474.00,526.17 474.00,527.22 C474.00,529.81 472.27,533.08 469.62,535.50 C468.41,536.60 466.34,540.20 465.02,543.50 C462.78,549.09 457.86,556.93 453.76,561.44 C452.03,563.35 452.00,563.35 452.00,561.19 C452.00,559.98 451.50,559.00 450.89,559.00 C450.28,559.00 450.05,559.67 450.36,560.50 C451.46,563.37 449.92,565.00 446.10,565.00 C444.08,565.00 439.85,565.67 436.71,566.49 C433.56,567.31 429.98,567.98 428.75,567.98 C421.59,567.97 417.49,568.91 415.87,570.91 C414.92,572.08 412.43,573.76 410.32,574.63 C408.22,575.50 404.48,577.57 402.02,579.23 C399.55,580.89 397.02,582.32 396.38,582.41 C395.75,582.51 393.17,584.70 390.65,587.29 C388.13,589.88 385.62,592.00 385.06,592.00 C384.50,592.00 383.77,593.08 383.43,594.41 C383.10,595.73 381.97,597.04 380.93,597.31 C379.88,597.58 378.58,598.99 378.03,600.43 C377.19,602.62 376.61,602.94 374.43,602.39 C371.94,601.77 371.84,601.90 372.14,605.42 C372.32,607.44 371.97,609.41 371.38,609.80 C370.79,610.18 370.05,612.42 369.74,614.77 C369.44,617.11 368.24,620.84 367.09,623.05 C365.94,625.25 365.00,628.06 364.99,629.28 C364.99,630.50 364.36,632.69 363.60,634.15 C362.84,635.61 361.90,639.66 361.51,643.15 C361.13,646.64 360.18,650.50 359.41,651.71 C357.56,654.62 357.61,658.91 359.50,659.64 C360.51,660.03 361.00,661.62 361.00,664.55 C361.00,666.93 361.41,669.13 361.91,669.44 C362.40,669.75 362.59,670.84 362.32,671.87 C362.06,672.90 363.18,676.16 364.82,679.12 C366.47,682.08 368.14,686.53 368.53,689.00 C368.93,691.47 370.10,694.57 371.13,695.88 C372.16,697.20 373.00,699.00 373.00,699.89 C373.00,700.79 373.84,702.04 374.87,702.69 C377.00,704.02 378.24,708.73 376.71,709.68 C376.13,710.04 376.00,709.82 376.40,709.15 C376.80,708.52 376.64,708.00 376.06,708.00 C374.82,708.00 374.72,709.01 375.79,710.70 C376.26,711.43 377.09,711.56 377.94,711.04 C380.02,709.75 381.65,710.75 387.32,716.79 C390.17,719.83 393.40,723.21 394.50,724.30 C396.32,726.12 396.34,726.24 394.66,725.64 C388.91,723.61 388.00,723.70 388.00,726.28 C388.00,729.01 389.61,730.00 394.02,730.00 C397.08,730.00 398.83,728.50 396.76,727.66 C395.94,727.34 396.07,727.13 397.12,727.08 C398.00,727.04 399.80,727.84 401.12,728.86 C404.77,731.71 410.78,734.52 418.58,737.02 C422.77,738.36 425.67,739.84 425.67,740.64 C425.67,741.39 425.20,742.00 424.62,742.00 C424.04,742.00 424.26,742.69 425.11,743.54 C426.52,744.95 430.00,744.67 430.00,743.14 C430.00,742.79 438.43,742.55 448.73,742.62 C459.04,742.68 468.75,742.29 470.32,741.74 C472.39,741.02 473.83,741.11 475.63,742.07 C477.88,743.27 478.31,743.16 480.30,740.83 C483.64,736.94 489.50,733.88 494.02,733.68 C497.28,733.54 498.19,733.07 498.63,731.32 C499.35,728.49 501.76,727.61 503.65,729.50 C505.87,731.73 506.98,731.34 507.63,728.10 C508.36,724.47 513.82,717.72 515.50,718.36 C517.18,719.01 518.98,717.10 518.32,715.38 C518.03,714.62 519.16,712.45 520.83,710.54 C522.50,708.64 524.66,705.38 525.63,703.29 C526.60,701.21 528.00,699.13 528.75,698.67 C529.50,698.21 530.53,696.74 531.04,695.40 C531.55,694.06 533.15,692.51 534.59,691.97 C536.94,691.07 537.15,690.60 536.56,687.48 C536.19,685.50 536.32,684.00 536.85,684.00 C537.37,684.00 537.80,682.31 537.79,680.25 C537.79,678.19 538.34,674.25 539.02,671.50 C541.08,663.13 541.38,646.85 539.56,642.49 C538.70,640.44 538.00,637.23 538.00,635.36 C538.00,633.50 537.57,631.19 537.05,630.24 C536.26,628.78 534.60,621.05 534.91,620.25 C534.97,620.11 533.44,617.76 531.52,615.02 C527.98,610.00 525.78,603.79 525.74,598.75 C525.71,595.98 524.65,595.15 523.50,597.00 C522.31,598.92 520.36,597.97 518.86,594.75 C516.94,590.63 517.16,586.46 519.42,583.82 C520.39,582.68 521.63,580.48 522.18,578.92 C522.72,577.36 523.93,575.84 524.87,575.54 C525.84,575.23 526.65,573.83 526.77,572.25 C526.89,570.63 528.24,568.35 530.06,566.70 C531.75,565.16 533.63,562.46 534.22,560.70 C535.50,556.94 538.00,553.02 538.00,554.78 C538.00,556.23 540.62,556.42 541.49,555.02 C541.82,554.48 541.69,553.24 541.19,552.27 C540.04,550.00 541.60,544.09 543.54,543.35 C544.34,543.04 545.00,541.79 545.00,540.57 C545.00,538.20 550.02,532.82 550.65,534.50 C551.60,537.00 552.87,538.20 553.89,537.57 C555.76,536.41 555.16,532.85 553.00,532.29 C551.90,532.00 551.00,531.57 551.00,531.33 C551.00,530.37 554.35,524.51 555.63,523.23 C556.38,522.47 557.00,521.21 557.00,520.43 C557.00,519.64 557.41,519.00 557.90,519.00 C558.40,519.00 559.27,517.66 559.84,516.02 C561.27,511.92 564.54,508.61 566.44,509.34 C568.23,510.02 568.45,508.71 567.00,506.01 C566.24,504.58 566.53,503.49 568.25,501.31 C569.49,499.76 571.02,497.59 571.66,496.49 C572.29,495.40 573.33,494.62 573.95,494.77 C574.58,494.91 574.99,494.46 574.87,493.77 C574.45,491.45 577.30,483.97 579.46,481.72 C583.27,477.73 589.00,468.01 589.00,465.52 C589.00,464.71 591.19,460.77 593.86,456.77 C596.53,452.77 599.69,447.48 600.87,445.00 C602.05,442.52 604.80,437.95 606.98,434.83 L 610.95 429.16 L 622.36 429.08 L 633.78 428.99 L 636.89 432.53 C638.60,434.48 640.08,436.84 640.17,437.78 C640.27,438.73 640.44,440.17 640.56,441.00 C640.69,441.83 640.84,443.06 640.89,443.75 C640.95,444.44 641.62,445.00 642.37,445.00 C644.81,445.00 649.40,453.14 649.25,457.20 C649.14,460.20 649.52,461.03 651.30,461.57 C654.36,462.50 657.00,465.00 657.00,466.97 C657.00,467.88 657.90,469.59 659.00,470.77 C660.10,471.95 661.00,473.61 661.00,474.46 C661.00,475.31 661.45,476.00 662.00,476.00 C663.39,476.00 663.25,479.35 661.80,480.80 C660.87,481.73 660.89,482.28 661.92,483.25 C662.94,484.20 663.35,484.22 663.69,483.31 C664.19,481.94 667.00,482.71 667.00,484.21 C667.00,484.76 668.11,486.53 669.47,488.15 C670.83,489.77 672.49,492.98 673.15,495.30 C673.82,497.61 675.18,500.30 676.17,501.28 C677.17,502.26 678.73,504.51 679.64,506.28 C680.56,508.05 682.54,511.08 684.05,513.00 C685.55,514.92 687.31,518.18 687.96,520.24 C688.61,522.29 689.61,524.26 690.17,524.60 C690.78,524.98 690.93,526.96 690.56,529.46 C690.09,532.55 690.32,534.02 691.38,534.90 C692.56,535.88 692.96,535.71 693.50,534.00 C694.33,531.38 696.49,532.82 697.44,536.63 C697.79,538.03 699.19,540.37 700.54,541.83 C701.90,543.29 703.49,545.95 704.08,547.74 C704.67,549.53 705.60,551.00 706.15,551.00 C706.70,551.00 707.00,552.46 706.83,554.23 C706.55,556.93 706.96,557.69 709.25,558.79 C712.31,560.26 712.76,562.12 710.50,564.00 C709.67,564.68 709.00,566.06 709.00,567.06 C709.00,569.04 711.18,570.94 711.71,569.43 C712.97,565.84 713.89,565.55 716.45,567.95 C717.85,569.27 719.01,571.06 719.03,571.92 C719.05,572.79 719.72,574.37 720.53,575.44 C721.34,576.51 722.00,578.87 722.00,580.68 C722.00,583.50 721.50,584.18 718.50,585.43 C716.58,586.24 714.47,588.07 713.81,589.51 C712.93,591.45 712.09,591.99 710.58,591.60 C709.15,591.23 707.70,591.98 705.78,594.07 C703.49,596.58 703.23,597.39 704.20,598.95 C705.18,600.52 704.75,601.61 701.48,605.90 C697.80,610.72 695.00,612.42 695.00,609.83 C695.00,609.19 694.71,608.96 694.36,609.31 C694.00,609.66 694.29,610.64 694.98,611.48 C696.54,613.35 695.71,618.15 693.19,621.83 C689.49,627.26 687.52,639.03 687.74,654.50 C687.97,670.09 690.01,680.00 695.23,690.77 C696.94,694.29 697.10,695.49 696.16,697.56 C695.19,699.68 695.28,700.15 696.76,700.61 C700.18,701.66 701.52,702.76 704.67,707.10 C706.43,709.52 707.90,712.77 707.93,714.32 C707.99,716.64 708.34,717.03 709.95,716.52 C711.36,716.07 713.05,717.02 716.11,719.99 C718.42,722.24 721.60,724.83 723.16,725.75 C726.52,727.74 726.72,728.58 724.00,729.29 C721.54,729.93 721.38,732.55 723.74,733.45 C724.88,733.89 726.06,733.41 727.15,732.07 L 728.81 730.01 L 735.04 733.10 C738.46,734.80 743.57,736.86 746.38,737.69 C749.20,738.52 752.04,739.65 752.71,740.19 C753.37,740.73 754.33,740.91 754.84,740.60 C755.35,740.28 756.33,740.69 757.01,741.51 C757.69,742.33 757.85,743.01 757.37,743.03 C756.89,743.05 757.35,743.71 758.38,744.49 C760.03,745.73 760.73,745.70 763.88,744.21 C766.85,742.82 769.99,742.56 781.30,742.78 ZM 361.95 856.09 C362.26,855.59 364.84,855.58 367.96,856.08 C373.13,856.90 373.57,856.80 376.08,854.22 C377.53,852.73 379.91,849.16 381.36,846.30 C383.58,841.91 383.76,840.96 382.52,840.27 C381.37,839.63 381.03,836.81 380.95,826.98 C380.89,820.11 381.15,812.23 381.52,809.46 C382.07,805.39 381.78,803.51 380.04,799.80 C377.20,793.77 375.08,791.97 369.29,790.72 C364.04,789.58 360.82,789.48 354.00,790.27 C351.52,790.55 347.25,790.17 344.50,789.43 C338.47,787.81 334.34,787.65 333.50,789.00 C332.57,790.50 329.29,790.21 325.70,788.31 C323.94,787.37 321.69,786.47 320.71,786.31 C316.74,785.63 310.89,781.89 311.17,780.20 C311.59,777.67 310.24,776.12 308.12,776.68 C306.57,777.08 305.97,776.22 304.71,771.84 C299.81,754.77 297.45,741.74 298.37,736.83 C298.73,734.95 298.48,731.18 297.83,728.45 C297.04,725.18 296.44,706.91 296.05,674.50 L 295.45 625.50 L 295.23 673.34 C295.20,678.98 295.19,684.40 295.20,689.59 C295.14,685.30 295.09,680.78 295.03,676.00 C294.63,642.35 294.04,615.71 293.47,604.13 C293.86,607.77 294.22,611.81 294.57,616.39 C295.68,630.72 297.30,624.32 296.74,607.82 C296.36,596.60 296.54,593.73 297.64,593.31 C299.90,592.44 299.29,589.00 296.87,589.00 C294.99,589.00 294.81,588.58 295.31,585.50 C295.75,582.77 295.48,581.79 294.07,581.04 C292.03,579.95 288.58,571.94 286.99,564.62 C286.41,561.94 285.39,558.79 284.72,557.62 C284.05,556.46 283.50,553.71 283.50,551.52 C283.50,548.35 283.10,547.47 281.50,547.15 C279.46,546.75 276.07,543.56 273.49,539.63 C272.27,537.76 271.38,534.88 271.07,531.75 C271.03,531.34 270.04,531.00 268.86,531.00 C266.77,531.00 261.00,525.93 261.00,524.11 C261.00,523.61 259.76,522.68 258.25,522.04 C253.66,520.11 249.62,517.62 247.25,515.25 C246.01,514.01 244.07,513.00 242.94,513.00 C241.81,513.00 241.16,512.55 241.50,512.00 C241.84,511.45 243.01,511.00 244.09,511.00 C245.18,511.00 246.30,510.38 246.59,509.63 C247.29,507.81 255.78,502.44 259.29,501.61 C260.83,501.24 261.82,500.52 261.50,500.01 C260.65,498.63 264.92,494.75 266.58,495.39 C267.51,495.75 268.00,495.26 268.00,494.00 C268.00,492.94 268.90,491.59 270.00,491.00 C271.10,490.41 272.00,489.41 272.00,488.77 C272.00,488.13 273.06,486.46 274.36,485.05 C277.52,481.62 285.50,465.82 287.50,459.00 C290.58,448.54 293.36,442.20 294.66,442.70 C296.43,443.38 297.57,438.14 296.15,435.86 C294.62,433.43 294.70,432.95 296.50,433.64 C297.47,434.01 298.00,433.61 298.00,432.50 C298.00,431.39 297.47,430.99 296.50,431.36 C294.57,432.10 294.51,426.83 296.39,422.50 C297.31,420.38 297.55,416.34 297.21,408.74 C296.79,399.69 296.98,397.68 298.36,396.15 C299.26,395.16 299.75,394.09 299.44,393.78 C299.14,393.47 298.89,388.78 298.89,383.36 C298.89,380.83 298.82,378.50 298.68,376.40 C298.50,373.46 298.22,370.96 297.92,369.79 C297.80,369.35 297.69,368.94 297.58,368.56 C297.44,368.04 297.30,367.59 297.14,367.19 C296.79,366.22 296.49,365.72 296.24,365.68 C296.17,365.62 296.10,365.56 296.03,365.52 C295.48,365.18 295.16,370.76 295.25,379.22 C295.27,381.55 295.28,383.89 295.27,386.22 C295.14,392.95 294.74,400.38 294.23,405.00 C293.27,413.75 292.44,420.92 291.68,426.85 C292.49,420.45 293.30,413.10 294.08,405.00 C294.70,398.55 295.31,368.27 295.46,336.00 C295.70,282.74 295.88,277.67 297.80,267.29 C299.21,259.67 300.62,254.44 302.58,250.18 C300.62,254.46 299.24,259.68 297.91,267.29 C296.21,276.93 295.89,284.18 295.61,319.00 C295.45,338.70 295.39,347.88 295.48,347.88 C295.54,347.89 295.70,342.21 295.96,331.50 C296.35,315.64 297.14,301.71 297.80,299.37 C299.21,294.34 299.54,286.66 298.54,282.17 C297.66,278.20 299.61,266.48 301.70,263.15 C303.00,261.08 303.72,258.07 304.44,251.60 C304.56,250.56 305.56,248.96 306.68,248.06 C307.79,247.16 309.24,245.42 309.89,244.21 C311.26,241.64 313.52,241.32 314.39,243.56 C315.31,245.97 317.16,244.14 316.81,241.17 C316.52,238.73 316.94,238.42 322.60,236.89 C331.45,234.49 345.74,233.54 350.68,235.02 C354.15,236.06 355.08,235.99 357.33,234.52 C359.19,233.30 361.01,232.99 363.72,233.43 C368.32,234.18 373.14,232.88 376.14,230.08 C378.82,227.58 382.07,220.92 381.25,219.60 C380.22,217.93 380.89,184.71 381.98,183.62 C384.35,181.25 382.69,177.87 375.75,170.94 C373.93,169.13 373.21,167.61 373.64,166.49 C374.02,165.51 373.70,164.43 372.90,163.91 C370.74,162.55 370.00,162.82 370.00,165.00 C370.00,166.51 369.33,167.00 367.25,167.01 C365.74,167.01 362.75,167.50 360.61,168.09 C358.47,168.68 356.45,168.79 356.11,168.34 C355.29,167.21 319.17,166.84 317.12,167.93 C316.23,168.41 312.26,169.04 308.30,169.34 C304.35,169.64 299.85,170.51 298.30,171.27 C295.48,172.65 289.53,174.56 278.50,177.61 C275.20,178.52 271.83,180.02 271.00,180.93 C268.40,183.82 265.86,184.25 264.33,182.06 C263.55,180.95 262.30,180.33 261.47,180.65 C259.54,181.39 259.58,183.63 261.54,184.38 C263.79,185.24 261.82,188.42 258.07,189.97 C256.42,190.65 254.80,192.07 254.47,193.11 C254.14,194.15 253.52,195.00 253.09,195.00 C252.67,195.00 251.80,196.15 251.16,197.55 C250.52,198.96 248.63,200.58 246.95,201.17 C245.00,201.85 244.01,202.81 244.19,203.87 C244.34,204.77 243.46,207.13 242.23,209.12 C241.01,211.11 240.00,213.56 240.00,214.56 C240.00,216.16 238.37,219.97 232.15,232.92 C231.24,234.80 230.65,237.17 230.82,238.18 C231.51,242.26 228.79,255.51 226.90,257.29 C224.79,259.27 224.43,262.03 226.07,263.67 C226.78,264.38 226.92,268.27 226.51,275.12 C226.16,280.83 225.70,313.85 225.49,348.50 C225.11,410.03 224.21,429.62 221.70,431.18 C221.09,431.56 220.70,433.60 220.83,435.73 C221.01,438.75 220.50,440.12 218.53,441.97 C216.99,443.42 216.00,445.45 216.00,447.15 C216.00,450.53 213.15,458.00 211.87,458.00 C211.36,458.00 210.53,459.11 210.01,460.46 C209.15,462.73 202.24,468.00 200.13,468.00 C199.64,468.00 197.97,468.65 196.44,469.45 C194.90,470.25 193.27,470.67 192.82,470.39 C192.37,470.11 191.99,470.70 191.98,471.69 C191.93,474.86 180.92,479.30 172.57,479.50 C162.92,479.73 163.24,479.63 161.49,483.01 C159.06,487.72 158.50,493.95 158.54,515.69 C158.58,532.76 158.84,536.17 160.19,537.69 C161.07,538.69 161.96,540.40 162.16,541.50 C162.48,543.27 163.58,543.57 171.62,544.14 C180.41,544.76 183.96,545.82 186.80,548.66 C187.54,549.40 189.48,550.00 191.12,550.00 C194.86,550.00 199.61,552.41 201.01,555.01 C201.59,556.11 203.59,557.64 205.44,558.41 C207.38,559.22 209.11,560.81 209.52,562.16 C209.91,563.45 211.24,565.62 212.49,567.00 C214.50,569.22 216.84,574.67 217.39,578.46 C217.50,579.20 218.17,580.50 218.88,581.36 C219.60,582.22 220.40,584.85 220.67,587.21 C220.94,589.57 221.56,592.62 222.05,594.00 C224.47,600.76 225.04,617.01 225.00,678.59 C224.97,733.20 225.20,744.23 226.41,747.14 C227.42,749.56 227.71,752.78 227.36,757.77 C227.03,762.40 227.44,767.80 228.51,773.03 C229.42,777.49 230.29,782.93 230.44,785.13 C230.60,787.33 231.24,789.64 231.86,790.26 C232.49,790.89 233.00,792.82 233.00,794.55 C233.00,799.36 234.97,804.21 238.14,807.19 C239.71,808.68 241.00,810.63 241.00,811.54 C241.00,812.44 241.90,814.33 243.00,815.73 C244.10,817.13 245.00,818.87 245.00,819.61 C245.00,820.35 246.12,821.69 247.50,822.59 C249.42,823.85 250.00,825.09 250.00,827.94 C250.00,831.46 250.15,831.63 252.85,831.23 C255.07,830.91 256.20,831.44 257.89,833.59 C261.36,838.00 274.37,844.77 289.00,849.77 C300.98,853.87 304.07,854.51 316.50,855.49 C334.19,856.89 361.23,857.25 361.95,856.09 ZM 567.25 265.25 C570.31,263.90 570.67,262.80 568.61,261.09 C566.53,259.36 560.43,264.60 562.13,266.66 C562.79,267.45 563.59,267.73 563.91,267.28 C564.24,266.83 565.74,265.92 567.25,265.25 ZM 425.48 565.83 C429.96,563.79 427.04,561.32 422.25,563.10 C419.76,564.02 419.16,567.00 421.45,567.00 C422.25,567.00 424.06,566.47 425.48,565.83 ZM 906.33 980.16 C904.31,979.70 900.00,983.87 900.00,986.28 C900.00,987.85 900.71,987.50 903.92,984.35 C906.72,981.59 907.41,980.40 906.33,980.16 ZM 524.51 587.98 C524.86,587.42 525.56,587.23 526.07,587.54 C527.16,588.21 527.23,587.76 526.39,585.58 C525.61,583.53 522.39,583.54 521.60,585.59 C520.56,588.31 523.05,590.35 524.51,587.98 ZM 456.64 552.50 C456.95,551.67 456.96,550.33 456.64,549.52 C455.90,547.57 453.00,548.70 453.00,550.94 C453.00,554.06 455.61,555.18 456.64,552.50 ZM 307.00 859.50 C307.00,858.45 305.94,858.00 303.50,858.00 C298.08,858.00 299.25,860.73 304.75,860.92 C306.12,860.97 307.00,860.41 307.00,859.50 ZM 188.00 468.87 C188.00,467.42 185.08,467.22 183.35,468.55 C181.81,469.73 181.73,470.12 182.91,470.89 C184.29,471.79 188.00,470.32 188.00,468.87 ZM 951.00 78.56 C951.00,77.77 950.53,76.83 949.95,76.47 C948.26,75.42 945.98,76.78 946.62,78.46 C947.37,80.41 951.00,80.49 951.00,78.56 ZM 358.44 680.09 C359.31,678.69 357.96,676.00 356.39,676.00 C354.88,676.00 354.66,676.95 355.61,679.42 C356.28,681.18 357.58,681.48 358.44,680.09 ZM 602.42 246.39 C604.29,245.67 604.55,242.99 602.75,243.02 C600.64,243.04 598.71,244.71 599.43,245.89 C600.23,247.18 600.32,247.20 602.42,246.39 ZM 713.97 581.28 C714.03,579.06 709.52,581.58 709.17,583.97 C708.83,586.21 708.85,586.21 711.38,584.36 C712.79,583.34 713.95,581.95 713.97,581.28 ZM 535.24 367.50 C534.80,365.15 533.09,364.24 531.73,365.61 C530.89,366.44 533.22,370.00 534.60,370.00 C535.26,370.00 535.52,368.96 535.24,367.50 ZM 550.00 542.44 C550.00,541.65 549.10,541.00 548.00,541.00 C545.82,541.00 545.23,543.56 547.25,544.28 C548.94,544.89 550.00,544.18 550.00,542.44 ZM 367.06 860.50 C367.06,859.95 365.92,859.36 364.53,859.18 C362.73,858.96 362.00,859.34 362.00,860.50 C362.00,861.66 362.73,862.04 364.53,861.82 C365.92,861.64 367.06,861.05 367.06,860.50 ZM 716.38 319.46 C716.72,318.58 716.32,317.68 715.44,317.34 C713.48,316.59 712.59,317.49 713.35,319.46 C714.10,321.44 715.62,321.44 716.38,319.46 ZM 536.00 609.86 C536.00,608.73 533.13,607.53 532.33,608.33 C532.01,608.65 532.02,609.60 532.34,610.44 C532.94,612.02 536.00,611.54 536.00,609.86 ZM 121.97 982.47 C121.30,981.66 120.06,981.00 119.20,981.00 C118.02,981.00 118.23,981.61 120.06,983.56 C122.49,986.15 124.21,985.17 121.97,982.47 ZM 534.00 698.67 C534.00,697.93 533.70,697.04 533.34,696.68 C532.44,695.77 529.89,698.01 530.57,699.11 C531.42,700.49 534.00,700.16 534.00,698.67 ZM 701.00 274.00 C701.00,272.89 700.33,272.00 699.50,272.00 C697.98,272.00 697.45,274.12 698.67,275.33 C699.93,276.60 701.00,275.99 701.00,274.00 ZM 819.50 1013.00 C819.86,1012.42 818.84,1012.00 817.06,1012.00 C815.38,1012.00 814.00,1012.45 814.00,1013.00 C814.00,1013.55 815.10,1014.00 816.44,1014.00 C817.78,1014.00 819.16,1013.55 819.50,1013.00 ZM 638.09 243.50 C638.09,242.95 637.16,242.36 636.04,242.18 C634.03,241.87 633.33,243.00 634.70,244.37 C635.67,245.34 638.11,244.72 638.09,243.50 ZM 212.82 578.33 C212.34,575.82 210.00,575.48 210.00,577.92 C210.00,579.15 210.65,580.00 211.57,580.00 C212.50,580.00 213.01,579.32 212.82,578.33 ZM 384.00 858.43 C384.00,857.50 383.32,856.99 382.33,857.18 C379.82,857.66 379.48,860.00 381.92,860.00 C383.14,860.00 384.00,859.35 384.00,858.43 ZM 717.75 574.75 C717.12,572.86 714.00,572.59 714.00,574.43 C714.00,575.35 714.85,576.00 716.08,576.00 C717.31,576.00 717.99,575.48 717.75,574.75 ZM 857.00 1008.94 C857.00,1008.42 856.10,1008.00 855.00,1008.00 C852.79,1008.00 852.28,1009.57 854.25,1010.28 C855.76,1010.82 857.00,1010.22 857.00,1008.94 ZM 461.00 545.44 C461.00,543.79 459.42,543.51 458.50,545.00 C457.68,546.32 458.88,548.19 460.07,547.46 C460.58,547.14 461.00,546.23 461.00,545.44 ZM 693.00 276.50 C693.00,275.67 692.33,275.00 691.50,275.00 C690.67,275.00 690.00,275.67 690.00,276.50 C690.00,277.33 690.67,278.00 691.50,278.00 C692.33,278.00 693.00,277.33 693.00,276.50 ZM 1012.00 184.50 C1012.00,183.68 1011.58,183.00 1011.06,183.00 C1009.80,183.00 1008.89,184.56 1009.69,185.36 C1010.82,186.49 1012.00,186.05 1012.00,184.50 ZM 95.00 58.94 C95.00,58.42 94.32,58.00 93.50,58.00 C91.95,58.00 91.51,59.18 92.64,60.31 C93.44,61.11 95.00,60.20 95.00,58.94 ZM 662.32 493.61 C662.69,492.64 662.28,492.38 660.93,492.73 C658.71,493.31 658.31,495.00 660.39,495.00 C661.16,495.00 662.03,494.38 662.32,493.61 ZM 658.57 485.23 C657.66,484.33 654.87,485.98 655.53,487.04 C655.97,487.77 656.63,487.72 657.61,486.91 C658.40,486.25 658.83,485.50 658.57,485.23 ZM 863.77 615.19 C863.99,614.53 863.53,614.00 862.75,614.00 C861.97,614.00 861.33,614.69 861.33,615.53 C861.33,617.26 863.17,617.00 863.77,615.19 ZM 548.00 276.50 C549.02,275.27 548.95,275.00 547.62,275.00 C546.73,275.00 546.00,275.67 546.00,276.50 C546.00,277.33 546.17,278.00 546.38,278.00 C546.59,278.00 547.32,277.33 548.00,276.50 ZM 539.00 702.00 C539.00,701.45 538.33,701.00 537.50,701.00 C536.67,701.00 536.00,701.45 536.00,702.00 C536.00,702.55 536.67,703.00 537.50,703.00 C538.33,703.00 539.00,702.55 539.00,702.00 ZM 541.00 682.50 C541.00,681.67 540.55,681.00 540.00,681.00 C539.45,681.00 539.00,681.67 539.00,682.50 C539.00,683.33 539.45,684.00 540.00,684.00 C540.55,684.00 541.00,683.33 541.00,682.50 ZM 229.67 228.34 C229.38,228.04 228.61,228.13 227.96,228.52 C227.09,229.06 227.14,229.47 228.14,230.09 C229.48,230.92 230.77,229.44 229.67,228.34 ZM 716.00 418.00 C716.00,417.45 715.30,417.00 714.44,417.00 C713.58,417.00 713.16,417.45 713.50,418.00 C713.84,418.55 714.54,419.00 715.06,419.00 C715.58,419.00 716.00,418.55 716.00,418.00 ZM 520.00 434.00 C520.00,433.45 519.55,433.00 519.00,433.00 C518.45,433.00 518.00,433.45 518.00,434.00 C518.00,434.55 518.45,435.00 519.00,435.00 C519.55,435.00 520.00,434.55 520.00,434.00 ZM 302.96 850.86 C308.83,851.98 315.69,852.97 322.92,853.72 C320.00,853.54 317.60,853.35 316.00,853.14 C312.21,852.66 307.49,851.81 302.96,850.86 ZM 297.01 754.63 C297.47,760.01 298.01,764.00 298.64,766.50 C299.93,771.62 302.13,776.21 305.03,780.04 C302.32,776.61 300.22,772.65 299.03,768.50 C298.17,765.48 297.52,761.44 297.01,754.63 ZM 357.24 854.40 C372.12,853.98 374.35,852.73 377.16,846.37 C375.73,849.60 374.60,851.56 371.89,852.73 C369.19,853.89 364.92,854.28 357.24,854.40 ZM 284.65 566.12 C279.74,553.47 273.28,542.44 265.91,534.56 C273.54,542.72 279.76,553.18 284.65,566.12 ZM 379.68 711.81 C379.36,711.01 379.13,711.25 379.08,712.42 C379.04,713.47 379.27,714.06 379.60,713.73 C379.94,713.40 379.97,712.53 379.68,711.81 ZM 288.36 447.84 L 288.32 448.00 C289.16,444.22 290.05,438.95 290.95,432.45 C290.01,439.30 289.19,444.16 288.36,447.84 Z" fill="rgb(0,51,254)"/>
<path d="M 0.00 917.00 C0.00,846.33 0.34,810.00 1.00,810.00 C1.55,810.00 2.01,811.69 2.02,813.75 C2.04,817.71 3.93,830.18 6.55,843.50 C8.95,855.76 16.49,876.91 24.00,892.50 C40.88,927.52 70.36,961.67 101.63,982.42 C106.51,985.66 112.39,989.60 114.70,991.18 C119.57,994.51 142.88,1005.99 144.79,1006.00 C145.49,1006.00 147.07,1006.64 148.29,1007.43 C154.55,1011.46 178.86,1018.16 199.50,1021.53 L 213.50 1023.82 L 106.75 1023.91 L 0.00 1024.00 L 0.00 917.00 ZM 821.50 1022.34 C837.90,1019.99 865.50,1012.88 873.74,1008.87 C876.36,1007.60 879.30,1006.44 880.28,1006.28 C883.32,1005.81 904.30,995.02 908.19,991.93 C910.22,990.32 912.34,989.00 912.89,989.00 C914.19,989.00 922.33,983.52 923.98,981.53 C924.67,980.69 925.69,980.00 926.23,980.00 C928.40,980.00 948.51,962.85 958.36,952.60 C968.32,942.22 970.46,939.77 977.17,931.00 C1001.80,898.83 1015.39,866.68 1021.57,826.00 C1022.36,820.78 1023.18,815.83 1023.39,815.00 C1023.60,814.17 1023.82,860.86 1023.88,918.75 L 1024.00 1024.00 L 917.75 1023.88 C821.36,1023.78 812.43,1023.63 821.50,1022.34 ZM 330.50 854.40 C312.77,853.05 295.99,850.10 288.50,847.02 C287.40,846.56 283.93,845.21 280.79,844.00 C261.69,836.65 244.91,817.75 237.70,795.50 C230.03,771.81 229.19,760.60 228.71,675.50 C228.40,620.56 228.10,609.87 226.58,600.00 C225.61,593.67 224.19,586.70 223.42,584.50 C222.66,582.30 222.01,579.83 221.99,579.00 C221.92,576.35 217.50,566.59 214.97,563.50 C209.01,556.24 202.50,550.72 196.71,548.06 C189.95,544.94 178.92,542.00 173.98,542.00 C168.01,542.00 163.12,537.94 162.13,532.16 C161.78,530.15 161.50,520.62 161.50,511.00 C161.51,485.79 162.27,484.31 176.42,482.17 C180.78,481.51 185.69,480.30 187.33,479.49 C188.97,478.67 191.16,478.00 192.20,478.00 C196.95,478.00 209.73,468.15 215.09,460.36 C216.74,457.97 219.66,451.28 221.57,445.50 C227.66,427.10 228.12,421.25 228.63,355.50 C229.35,261.47 231.13,242.11 241.07,220.39 C251.72,197.12 265.97,184.86 291.53,176.99 C308.01,171.92 317.74,170.76 344.70,170.64 C372.26,170.51 372.40,170.55 376.80,179.06 C379.00,183.32 379.08,184.31 378.80,203.05 C378.37,230.99 378.75,230.62 349.38,231.59 C322.38,232.47 313.45,234.86 307.09,242.88 C302.41,248.80 300.10,254.86 297.80,267.29 C295.88,277.67 295.70,282.74 295.46,336.00 C295.31,368.27 294.70,398.55 294.08,405.00 C292.02,426.37 289.79,442.46 287.84,450.00 C285.15,460.46 278.12,474.46 271.19,483.18 C262.12,494.59 257.43,498.39 237.18,510.72 C234.48,512.37 235.50,514.41 239.54,515.42 C244.01,516.54 259.73,527.95 265.91,534.56 C279.13,548.69 289.44,572.96 293.06,598.50 C293.74,603.30 294.53,634.26 295.03,676.00 C295.83,742.84 296.56,759.84 299.03,768.50 C301.88,778.49 310.07,787.40 319.20,790.42 C325.57,792.53 343.22,794.04 359.02,793.82 C377.75,793.56 378.31,794.36 378.80,822.19 C379.12,840.11 378.97,842.28 377.16,846.37 C374.05,853.41 371.65,854.18 352.07,854.51 C342.96,854.66 333.25,854.61 330.50,854.40 ZM 435.00 739.55 C426.37,737.68 413.03,732.30 405.00,727.44 C399.03,723.82 381.75,707.51 380.16,704.00 C379.79,703.17 377.96,699.87 376.10,696.66 C372.43,690.34 367.36,676.93 366.21,670.50 C365.82,668.30 365.54,660.20 365.58,652.50 C365.66,639.99 365.97,637.59 368.46,630.00 C370.00,625.33 373.46,617.22 376.14,611.99 C384.09,596.50 398.02,583.63 415.50,575.60 C422.73,572.29 441.32,568.00 448.48,568.00 C454.37,568.00 456.24,566.55 460.13,559.00 C461.40,556.53 464.15,551.93 466.22,548.80 C468.30,545.66 470.00,542.86 470.00,542.57 C470.00,542.28 471.50,539.67 473.33,536.77 C475.16,533.87 476.98,530.83 477.37,530.00 C477.76,529.17 478.62,527.58 479.29,526.46 C479.96,525.33 482.48,521.06 484.90,516.96 C487.32,512.86 490.36,507.82 491.65,505.77 C492.94,503.72 494.00,501.82 494.00,501.54 C494.00,501.26 495.51,498.67 497.36,495.77 C499.21,492.87 502.62,486.90 504.94,482.50 C507.26,478.10 509.74,473.83 510.45,473.00 C511.16,472.17 513.21,468.80 515.00,465.50 C516.80,462.20 518.66,459.00 519.14,458.39 C519.62,457.78 521.65,454.18 523.66,450.39 C525.66,446.60 528.30,442.15 529.53,440.50 C530.75,438.85 532.86,435.48 534.22,433.00 C535.58,430.52 539.12,424.33 542.09,419.24 C545.07,414.15 548.65,407.85 550.05,405.24 C551.45,402.63 553.40,399.28 554.38,397.80 C556.10,395.20 556.10,394.97 554.37,392.05 C553.38,390.37 552.27,389.00 551.90,389.00 C551.53,389.00 549.99,386.41 548.47,383.25 C546.95,380.09 545.17,376.83 544.50,376.00 C543.84,375.17 542.04,370.45 540.50,365.50 C538.19,358.07 537.61,354.11 537.22,342.79 C536.81,330.96 537.05,327.80 538.98,319.79 C540.21,314.68 541.56,310.05 541.99,309.50 C542.41,308.95 543.09,307.38 543.50,306.00 C545.01,300.93 555.03,285.33 560.27,279.90 C581.29,258.11 615.19,248.85 645.50,256.62 C652.74,258.48 666.12,264.61 672.48,268.99 C690.62,281.47 704.89,303.72 708.26,324.77 C709.96,335.38 709.64,351.11 707.54,359.55 C705.42,368.11 699.64,380.70 694.05,388.92 L 689.85 395.11 L 704.61 420.30 C712.73,434.16 722.59,451.12 726.54,458.00 C730.48,464.88 735.87,474.10 738.50,478.50 C750.93,499.25 758.94,512.80 760.67,516.00 C762.42,519.24 765.11,523.84 784.19,556.24 C787.99,562.70 791.86,568.38 792.80,568.87 C793.73,569.36 796.92,570.27 799.88,570.90 C807.72,572.55 817.63,576.98 824.89,582.06 C828.38,584.50 831.99,586.95 832.91,587.50 C833.82,588.05 836.36,590.52 838.54,592.99 C840.72,595.45 843.71,598.80 845.18,600.43 C852.25,608.22 860.53,627.65 862.91,642.08 C865.10,655.32 863.73,668.23 858.57,682.98 C849.61,708.62 827.58,729.48 800.50,737.96 C779.78,744.45 748.75,739.64 731.31,727.22 C729.60,726.00 727.73,725.00 727.16,725.00 C724.69,725.00 707.32,705.95 703.17,698.69 C692.58,680.16 688.47,659.61 691.54,640.50 C693.49,628.35 701.54,610.01 708.72,601.36 C716.44,592.05 720.29,588.00 721.38,588.00 C722.00,588.00 723.80,586.63 725.39,584.95 C728.71,581.43 728.61,580.99 722.36,571.55 C718.01,565.00 718.08,565.11 714.99,559.12 C713.02,555.31 690.64,517.07 688.00,513.00 C687.46,512.17 686.06,509.70 684.90,507.50 C683.73,505.30 681.70,502.07 680.39,500.32 C679.07,498.57 678.00,496.84 678.00,496.49 C678.00,496.14 675.97,492.72 673.50,488.89 C671.03,485.07 669.00,481.70 669.00,481.40 C669.00,481.10 665.29,474.57 660.75,466.87 C652.03,452.10 647.18,443.71 642.60,435.50 C637.46,426.29 637.93,426.50 622.45,426.50 L 608.78 426.50 L 592.64 454.02 C583.76,469.16 571.78,489.53 566.00,499.28 C555.13,517.64 553.50,520.40 541.72,540.50 C537.85,547.10 530.56,559.47 525.52,568.00 C520.47,576.53 515.32,585.36 514.06,587.62 L 511.77 591.75 L 517.79 598.91 C532.80,616.79 540.27,642.36 537.06,664.82 C534.29,684.14 527.21,699.05 514.11,713.16 C503.33,724.77 491.38,732.26 475.00,737.68 C465.52,740.82 445.26,741.77 435.00,739.55 ZM 0.00 106.06 L 0.00 0.00 L 105.70 0.00 C164.27,0.00 210.98,0.38 210.45,0.85 C209.93,1.32 204.77,2.25 199.00,2.90 C187.48,4.21 182.08,5.28 167.75,9.14 C165.41,9.77 159.57,11.80 154.76,13.64 C149.95,15.49 145.30,17.00 144.44,17.00 C142.27,17.00 114.34,32.09 104.18,38.76 C84.40,51.73 61.27,73.47 47.19,92.30 C40.54,101.19 29.75,118.62 24.69,128.64 C17.61,142.67 8.76,167.90 5.46,183.50 C3.94,190.71 2.03,203.80 2.02,207.19 C2.01,209.22 1.55,211.16 1.00,211.50 C0.34,211.91 0.00,176.51 0.00,106.06 ZM 1021.23 194.25 C1017.43,171.17 1011.26,152.02 1000.01,128.32 C996.76,121.48 987.14,105.09 984.27,101.50 C983.83,100.95 981.69,98.03 979.51,95.00 C968.73,80.04 943.12,54.38 929.59,45.00 C927.61,43.62 925.20,41.94 924.24,41.26 C919.19,37.68 911.70,33.00 911.03,33.00 C910.61,33.00 909.17,32.13 907.82,31.07 C905.00,28.86 888.73,20.61 885.00,19.50 C883.62,19.10 881.83,18.21 881.00,17.52 C880.17,16.84 878.60,16.04 877.50,15.75 C876.40,15.45 871.00,13.64 865.50,11.72 C851.61,6.88 842.84,4.94 825.50,2.88 C820.00,2.22 815.07,1.31 814.55,0.84 C814.03,0.38 860.94,0.00 918.80,0.00 L 1024.00 0.00 L 1024.00 104.00 C1024.00,161.20 1023.89,208.00 1023.75,208.00 C1023.61,207.99 1022.48,201.81 1021.23,194.25 Z" fill="rgb(252,252,251)"/>
</g>
</svg>